<svg width="614" height="754" viewBox="0 0 614 754" fill="none" xmlns="http://www.w3.org/2000/svg">
<path d="M267 433.667V500.333C213.957 500.333 163.086 521.405 125.579 558.912C88.0714 596.419 67 647.29 67 700.333H0.333374C0.333374 629.609 28.4285 561.781 78.4382 511.772C128.448 461.762 196.276 433.667 267 433.667ZM267 400.333C156.5 400.333 67 310.833 67 200.333C67 89.8335 156.5 0.333496 267 0.333496C377.5 0.333496 467 89.8335 467 200.333C467 310.833 377.5 400.333 267 400.333ZM267 333.667C340.667 333.667 400.333 274 400.333 200.333C400.333 126.667 340.667 67.0002 267 67.0002C193.333 67.0002 133.667 126.667 133.667 200.333C133.667 274 193.333 333.667 267 333.667ZM567 533.667V539.167V550.833H467H367V538V533.667V500.333C367 473.812 377.536 448.376 396.289 429.623C415.043 410.869 440.478 400.333 467 400.333C493.522 400.333 518.957 410.869 537.711 429.623C556.464 448.376 567 473.812 567 500.333V533.667ZM500.333 533.667V500.333C500.333 491.493 496.821 483.014 490.57 476.763C484.319 470.512 475.841 467 467 467C458.159 467 449.681 470.512 443.43 476.763C437.179 483.014 433.667 491.493 433.667 500.333V533.667H500.333Z" fill="black"/>
<path d="M565.449 534H373.544C346.76 534 325 550.566 325 570.979V717.021C325 737.434 346.76 754 373.544 754H565.449C592.24 754 614 737.434 614 717.021V570.979C614 550.566 592.24 534 565.449 534Z" fill="black"/>
</svg>
