<svg width="800" height="768" viewBox="0 0 800 768" fill="none" xmlns="http://www.w3.org/2000/svg">
<path d="M0 618.402C0 660.002 14.6667 695.202 44 724.002C73.3333 752.802 108.8 767.469 150.4 768.002H650.4C691.467 768.002 726.667 753.335 756 724.002C785.333 694.669 800 659.469 800 618.402V150.5C800 117.967 790.667 88.9 772 63.3C753.333 37.7 729.333 19.8333 700 9.70001V75.3C700 96.1 692.8 113.967 678.4 128.9C664 143.833 646.133 151.033 624.8 150.5C603.467 149.967 585.867 142.767 572 128.9C558.133 115.033 550.933 97.1667 550.4 75.3V0.100006H250.4V75.3C250.4 96.1 242.933 113.967 228 128.9C213.067 143.833 195.467 151.033 175.2 150.5C154.933 149.967 137.067 142.767 121.6 128.9C106.133 115.033 98.9333 97.1667 100 75.3V9.70001C70.6667 20.3667 46.6667 38.2333 28 63.3C9.33333 88.3667 0 117.433 0 150.5V618.402ZM67.5 619.002V218.4H733V624.502C733 638.369 720.6 664.402 711 674.002C701.4 683.602 664.267 700.502 650.4 700.502L148.5 701.002C134.633 701.002 101.133 687.102 91 677.502C80.8667 667.902 66.9667 632.869 67.5 619.002ZM150.4 75.3C150.4 82.2333 152.8 88.1 157.6 92.9C162.4 97.7 168.267 100.1 175.2 100.1C182.133 100.1 188 97.7 192.8 92.9C197.6 88.1 200 82.2333 200 75.3V0.100006H150.4V75.3ZM600 75.3C600 82.2333 602.4 88.1 607.2 92.9C612 97.7 617.867 100.1 624.8 100.1C631.733 100.1 637.6 97.7 642.4 92.9C647.2 88.1 649.867 82.2333 650.4 75.3V0.100006H600V75.3Z" fill="black"/>
<rect x="139" y="289" width="140" height="140" rx="25" fill="black"/>
<rect x="330" y="289" width="140" height="140" rx="25" fill="black"/>
<rect x="521" y="289" width="140" height="140" rx="25" fill="black"/>
<rect x="139" y="476" width="140" height="140" rx="25" fill="black"/>
<rect x="330" y="476" width="140" height="140" rx="25" fill="black"/>
<rect x="521" y="476" width="140" height="140" rx="25" fill="black"/>
</svg>
