<svg width="822" height="775" viewBox="0 0 822 775" fill="none" xmlns="http://www.w3.org/2000/svg">
<path d="M34 307.373L374.808 51.7221C387.788 41.9866 394.276 37.1187 401.402 35.242C407.694 33.5859 414.306 33.5859 420.598 35.2424C427.724 37.1187 434.212 41.9866 447.192 51.7221L788 307.373M297.9 741V461.971C297.9 440.851 297.9 430.293 302.009 422.228C305.624 415.131 311.391 409.366 318.485 405.75C326.549 401.64 337.108 401.64 358.22 401.64H463.78C484.896 401.64 495.452 401.64 503.516 405.75C510.611 409.366 516.375 415.131 519.991 422.228C524.1 430.293 524.1 440.851 524.1 461.971V741C566.328 741 655.304 740.17 671.432 731.95C685.618 724.722 697.154 714.013 704.381 699.824C712.6 683.693 712.6 662.574 712.6 620.339V250.813L483.384 78.8709C457.428 59.3995 444.447 49.6641 430.193 45.9111C417.613 42.5986 404.387 42.5986 391.807 45.9111C377.553 49.6641 364.572 59.3995 338.616 78.8709L109.4 250.813V620.339C109.4 662.574 109.4 683.693 117.618 699.824C124.847 714.013 136.382 725.551 150.569 732.78C166.698 741 255.672 741 297.9 741Z" stroke="black" stroke-width="66.6667" stroke-linecap="round" stroke-linejoin="round"/>
</svg>
