<svg width="198" height="32" viewBox="0 0 198 32" fill="none" xmlns="http://www.w3.org/2000/svg">
<g clip-path="url(#clip0_262_369)">
<path d="M9.19064 15.076C9.57761 14.8815 9.96459 14.5897 10.2548 14.2979C10.932 13.5198 11.319 12.5471 11.319 11.2827V10.6018L11.1255 9.33741C11.0288 8.5593 10.545 7.78118 9.67435 7.19759C8.80366 6.71127 7.546 6.32221 5.9981 6.32221H0.483718C0.193487 6.32221 0 6.61401 0 6.80854V24.5107C0 24.8025 0.193487 24.997 0.483718 24.997H6.38507C8.02971 24.997 9.28738 24.7052 10.1581 24.0243C11.0288 23.3435 11.6092 22.4681 11.8027 21.4955C11.9962 20.5228 11.9962 19.9392 11.9962 19.5502C11.9962 17.2158 11.0288 15.6596 9.19064 15.076ZM7.83623 11.1854C7.83623 11.5745 7.73948 12.0608 7.64274 12.6444C7.546 13.1307 7.35251 13.5198 6.96554 13.7143C6.57856 14.0061 5.9981 14.1034 5.22415 14.1034H3.48277V9.04562H6.19159C7.25577 9.24015 7.83623 9.921 7.83623 11.1854ZM3.48277 16.6322H5.12741C6.38507 16.6322 7.25577 16.8268 7.64274 17.2158C8.12646 17.6049 8.31995 18.383 8.31995 19.4529C8.31995 20.5228 8.12646 21.2037 7.73948 21.5927C7.35251 21.9818 6.6753 22.1763 5.80461 22.1763H3.48277V16.6322ZM36.6658 11.769H34.344C34.0537 11.769 33.8602 11.9636 33.8602 12.2553V21.69L33.4733 21.8845L33.0863 22.0791C32.5058 22.3708 31.9254 22.4681 31.4417 22.4681C30.9579 22.4681 30.4742 22.3708 30.184 22.0791C29.8938 21.7873 29.7003 21.4955 29.7003 21.1064V11.8663C29.7003 11.769 29.6035 11.5745 29.5068 11.4772C29.41 11.38 29.3133 11.38 29.1198 11.38L26.798 11.6718C26.6045 11.6718 26.411 11.8663 26.411 12.1581V21.0091C26.411 22.2736 26.798 23.3435 27.4752 24.1216C28.2491 24.8997 29.2166 25.2888 30.571 25.2888C31.0547 25.2888 31.5384 25.1915 32.1189 25.0942C32.6993 24.997 33.2798 24.8025 33.8602 24.4134V24.5107C33.8602 24.8025 34.0537 24.997 34.344 24.997H36.6658C36.956 24.997 37.1495 24.8025 37.1495 24.5107V12.2553C37.0528 11.9636 36.8593 11.769 36.6658 11.769ZM49.436 6.12769L47.1141 6.41948C46.9206 6.41948 46.7271 6.61401 46.7271 6.9058V12.2553C45.8564 11.769 45.0825 11.5745 44.1151 11.5745C43.0509 11.5745 42.0834 11.8663 41.2127 12.5471C40.3421 13.1307 39.7616 13.9088 39.4714 14.8815C39.1811 15.7569 38.9877 16.4377 38.8909 17.1186C38.7942 17.7994 38.7942 18.2857 38.7942 18.7721C38.7942 19.4529 38.8909 20.231 39.0844 21.3009C39.2779 22.3708 39.8583 23.3435 40.8258 24.2189C41.7932 25.0942 42.8574 25.4833 44.0183 25.4833C44.889 25.4833 45.663 25.2888 46.3402 24.8997L46.8239 24.6079V24.8025C46.8239 25.0943 47.0174 25.2888 47.3076 25.2888H49.5327C49.8229 25.2888 50.0164 25.0943 50.0164 24.8025V6.61401C50.0164 6.51674 49.9197 6.32221 49.8229 6.32221C49.6294 6.12769 49.5327 6.12769 49.436 6.12769ZM42.1802 18.4803C42.1802 17.9939 42.2769 17.4104 42.3737 16.6322C42.4704 15.9514 42.7606 15.4651 43.1476 14.9787C43.5346 14.5897 44.0183 14.3952 44.5988 14.3952C44.7923 14.3952 45.0825 14.3952 45.3727 14.4924C45.663 14.5897 45.9532 14.687 46.1467 14.7842L46.5336 15.076V21.4955L46.1467 21.69C45.5662 21.9818 45.0825 22.1763 44.5988 22.1763C44.0183 22.1763 43.5346 21.9818 43.0509 21.5927C42.6639 21.1064 42.3737 20.6201 42.2769 20.0365C42.2769 19.4529 42.1802 18.8693 42.1802 18.4803ZM57.4657 11.4772C57.1754 11.4772 56.4982 11.5745 55.6275 11.6718C54.6601 11.769 53.6927 12.4499 52.822 13.617C51.9513 14.7842 51.5643 16.3405 51.5643 18.383C51.5643 20.5228 52.1448 22.2736 53.3057 23.4408C54.4666 24.7052 56.0145 25.2888 58.0461 25.2888C59.1103 25.2888 60.2712 25.0942 61.4322 24.7052L62.0126 24.5107C62.2061 24.4134 62.3996 24.2189 62.3028 23.9271L61.9159 22.2736C61.9159 22.1763 61.8191 22.0791 61.7224 21.9818C61.6256 21.8845 61.4322 21.8845 61.3354 21.9818L60.7549 22.1763C59.8843 22.4681 59.2071 22.5654 58.5298 22.5654C57.5624 22.5654 56.7885 22.2736 56.208 21.7873C55.6275 21.3009 55.2406 20.5228 55.0471 19.6474H62.3028C62.5931 19.6474 62.7866 19.4529 62.7866 19.2584L62.8833 18.1885C62.8833 16.0487 62.3996 14.3952 61.4322 13.228C60.947 12.652 60.3376 12.1949 59.6502 11.8916C58.9629 11.5882 58.2157 11.4465 57.4657 11.4772ZM55.4341 14.9787C55.821 14.4924 56.208 14.2006 56.4982 14.2006C57.1754 14.1034 57.2722 14.1034 57.2722 14.1034C57.9494 14.1034 58.4331 14.2979 58.9168 14.8815C59.3038 15.3678 59.4973 16.1459 59.594 17.1186H54.8536C54.8536 16.2432 55.0471 15.4651 55.4341 14.9787ZM81.0711 11.769H78.6525C78.459 11.769 78.2655 11.8663 78.1688 12.1581L76.1372 19.9392L74.0088 12.1581C73.9121 11.9636 73.8153 11.8663 73.5251 11.8663H70.913C70.7195 11.8663 70.526 11.9636 70.4293 12.1581L68.3009 19.9392L66.3661 11.8663C66.2693 11.6718 66.0758 11.4772 65.8824 11.4772L63.367 11.769C63.2703 11.769 63.0768 11.8663 63.0768 11.9636C62.98 12.0608 62.98 12.2553 62.98 12.3526L66.2693 24.6079C66.3661 24.8025 66.4628 24.8997 66.7531 24.8997H69.5586C69.7521 24.8997 69.9456 24.8025 70.0423 24.6079L72.2674 16.6322L74.4925 24.6079C74.5893 24.8025 74.686 24.8997 74.9762 24.8997H77.6851C77.8786 24.8997 78.072 24.8025 78.1688 24.6079L81.5548 12.2553C81.5548 12.1581 81.5548 11.9636 81.4581 11.8663C81.3613 11.8663 81.1678 11.769 81.0711 11.769ZM85.1343 11.4772L82.8125 11.769C82.619 11.769 82.4255 11.9636 82.4255 12.2553V24.5107C82.4255 24.8025 82.619 24.997 82.9092 24.997H85.2311C85.5213 24.997 85.7148 24.8025 85.7148 24.5107V11.8663C85.7148 11.769 85.618 11.5745 85.5213 11.4772H85.1343ZM84.1669 6.32221C83.7799 6.32221 83.4897 6.41948 83.006 6.51674C82.5222 6.71127 82.232 7.29486 82.232 8.2675C82.232 9.14288 82.5222 9.72647 83.1027 9.921C83.4897 10.1155 83.8767 10.1155 84.1669 10.1155C84.6506 10.1155 85.8115 9.921 85.8115 8.17024C85.9083 6.51674 84.6506 6.32221 84.1669 6.32221ZM89.4878 6.32221C88.3269 6.32221 87.6497 7.00306 87.6497 8.17024C87.6497 9.04562 87.9399 9.62921 88.5203 9.82373C88.9073 10.0183 89.2943 10.1155 89.6813 10.1155C90.165 10.1155 91.3259 9.921 91.3259 8.17024C91.3259 7.00306 90.6487 6.32221 89.4878 6.32221ZM90.6487 11.4772L88.3269 11.769C88.1334 11.769 87.9399 11.9636 87.9399 12.2553V24.8025C87.9399 25.7751 87.8431 26.456 87.7464 26.845C87.6497 27.2341 87.3594 27.7204 87.0692 28.0122L86.779 28.304C86.6822 28.4012 86.6822 28.5958 86.6822 28.693C86.6822 28.7903 86.779 28.9848 86.8757 28.9848L88.3269 29.7629C88.4236 29.7629 88.5203 29.8602 88.5203 29.8602C88.6171 29.8602 88.7138 29.8602 88.8106 29.7629L89.1975 29.4711C89.9715 28.8876 90.552 28.2067 90.7455 27.6231C90.9389 27.0395 91.1324 26.0669 91.1324 24.7052V11.9636C91.1324 11.8663 91.0357 11.6718 90.9389 11.5745C90.8422 11.5745 90.7454 11.4772 90.6487 11.4772ZM102.645 12.3526C101.871 11.6718 100.904 11.38 99.7426 11.38C98.8719 11.38 97.9045 11.5745 97.0338 11.9636L96.4533 12.2553V11.8663C96.4533 11.769 96.3566 11.5745 96.2598 11.4772C96.1631 11.38 96.0663 11.38 95.8729 11.38L93.551 11.6718C93.3575 11.6718 93.164 11.8663 93.164 12.1581V24.4134C93.164 24.7052 93.3575 24.8997 93.6478 24.8997H95.9696C96.2598 24.8997 96.4533 24.7052 96.4533 24.4134V14.9787L96.7435 14.7842L97.2273 14.4924C97.8077 14.2006 98.3882 14.1034 98.8719 14.1034C99.4524 14.1034 99.8393 14.2006 100.13 14.4924C100.42 14.7842 100.613 15.1733 100.613 15.5623V24.3161C100.613 24.6079 100.807 24.8025 101.097 24.8025H103.419C103.709 24.8025 103.903 24.6079 103.903 24.3161V14.687C103.903 13.9088 103.516 13.0335 102.645 12.3526ZM19.0585 11.1854C15.092 11.1854 13.1571 13.5198 13.1571 18.2857C13.1571 23.0517 15.092 25.386 19.0585 25.386C23.025 25.386 25.0566 23.0517 25.0566 18.2857C24.9598 13.5198 23.025 11.1854 19.0585 11.1854ZM16.3497 18.2857C16.3497 15.076 17.2204 13.4225 18.9617 13.4225C20.7031 13.4225 21.6706 15.076 21.6706 18.2857C21.6706 21.4955 20.7999 23.149 18.9617 23.149C17.2204 23.149 16.3497 21.4955 16.3497 18.2857Z" fill="#1E9CD8"/>
<path d="M135.538 10.7963C135.151 10.7963 134.57 10.8936 133.603 10.9908C132.635 11.0881 131.668 11.7689 130.701 12.8388C129.733 14.006 129.153 15.1732 128.959 16.3404C128.766 17.5075 128.766 18.2857 128.766 18.6747C128.766 20.4255 129.249 21.7872 130.217 22.6625C131.184 23.5379 132.539 24.0243 134.474 24.0243H134.957C135.151 24.0243 135.441 24.0243 135.828 23.927C136.215 23.927 136.505 23.8297 136.795 23.8297C137.086 23.7325 137.473 23.7325 137.86 23.5379L138.247 23.4407L138.537 23.3434L138.247 20.8145L137.956 20.9118L137.569 21.0091L136.408 21.3008C136.021 21.3981 135.731 21.3981 135.441 21.3981C134.57 21.3981 133.796 21.2036 133.313 20.7173C132.829 20.3282 132.539 19.7446 132.442 18.9665V18.5774H139.311L139.601 17.5075C139.698 17.1185 139.698 16.8267 139.698 16.5349V15.6595C139.891 12.4498 138.44 10.7963 135.538 10.7963ZM136.215 14.006C136.505 14.3951 136.699 14.9787 136.699 15.7568L136.602 16.4376H132.539L132.635 16.0486C132.829 15.3677 133.022 14.7841 133.313 14.2978C133.603 13.9088 133.893 13.617 134.183 13.4224C134.474 13.2279 134.764 13.2279 135.054 13.2279C135.538 13.3252 135.925 13.5197 136.215 14.006ZM150.823 11.4771C150.049 10.9908 148.598 10.7963 146.566 10.7963C146.083 10.7963 145.599 10.8936 145.115 10.9908C144.632 11.0881 144.245 11.1853 143.954 11.2826L143.374 11.4771L142.793 11.6717L143.277 14.2005L143.664 14.006C144.438 13.8115 145.115 13.617 145.793 13.5197C146.18 13.5197 146.47 13.4224 146.566 13.4224C147.244 13.4224 147.727 13.5197 148.018 13.7142C148.308 13.9088 148.405 14.2978 148.405 14.6869V15.1732L148.211 16.1458L147.921 16.0486L147.631 15.9513L147.147 15.854C146.663 15.7568 146.373 15.7568 146.18 15.7568H145.502C144.245 15.7568 143.084 16.0486 142.31 16.6322C141.439 17.2157 140.859 17.9939 140.568 18.772C140.278 19.6474 140.181 20.2309 140.181 20.7173C140.181 21.5926 140.472 22.3708 140.955 22.9543C141.536 23.5379 142.213 23.927 143.18 24.0243H143.954C144.922 24.0243 145.889 23.6352 146.953 22.8571L147.244 22.5653V23.6352H150.533L151.791 14.7841C151.887 14.3951 151.887 14.006 151.887 13.7142C151.984 12.7416 151.597 11.9635 150.823 11.4771ZM147.727 17.7993L148.018 17.8966L147.534 21.0091L147.244 21.2036C146.953 21.3981 146.663 21.4954 146.373 21.4954C146.083 21.5926 145.793 21.5926 145.502 21.5926C145.019 21.4954 144.728 21.3981 144.438 21.1063C144.148 20.8145 144.051 20.5227 144.051 20.1337C144.051 20.0364 144.051 19.8419 144.148 19.6474C144.148 19.4528 144.245 19.2583 144.341 18.9665C144.438 18.6747 144.728 18.4802 145.212 18.1884C145.696 17.8966 146.276 17.7993 146.857 17.7993H147.727ZM160.885 10.7963C160.498 10.7963 160.014 10.8936 159.627 10.9908C159.24 11.0881 158.756 11.3799 158.272 11.5744L157.982 11.7689L158.079 10.7963L154.596 11.0881L152.178 28.2066H155.66L156.434 22.8571L156.725 23.0516C157.499 23.6352 158.369 23.927 159.337 23.927C161.368 23.927 162.723 23.1489 163.4 21.6899C164.077 20.2309 164.561 19.0638 164.754 18.1884C164.948 17.4103 165.045 16.5349 165.045 15.6595C165.045 14.006 164.658 12.8388 163.884 11.9635C163.11 11.2826 162.142 10.7963 160.885 10.7963ZM157.885 14.2005L158.079 14.1033C158.563 13.9088 158.95 13.8115 159.24 13.8115C160.498 13.8115 161.078 14.7841 161.078 16.7294L160.885 17.8966C160.691 18.9665 160.304 19.7446 159.82 20.2309C159.337 20.7173 158.756 20.9118 158.079 20.9118C157.789 20.9118 157.498 20.8145 157.112 20.62L156.821 20.5227L156.628 20.4255L157.499 14.2978L157.885 14.2005ZM176.073 11.4771C175.299 10.9908 173.848 10.7963 171.817 10.7963C171.333 10.7963 170.849 10.8936 170.365 10.9908C169.882 11.0881 169.495 11.1853 169.204 11.2826L168.624 11.4771L168.044 11.6717L168.527 14.2005L168.914 14.006C169.688 13.8115 170.365 13.617 171.043 13.5197C171.43 13.5197 171.72 13.4224 171.817 13.4224C172.494 13.4224 172.977 13.5197 173.268 13.7142C173.558 13.9088 173.655 14.2978 173.655 14.6869V15.1732L173.461 16.1458L173.171 16.0486L172.881 15.9513L172.397 15.854C171.913 15.7568 171.623 15.7568 171.43 15.7568H170.752C169.495 15.7568 168.334 16.0486 167.56 16.6322C166.689 17.2157 166.109 17.9939 165.818 18.772C165.528 19.6474 165.431 20.2309 165.431 20.7173C165.431 21.5926 165.722 22.3708 166.205 22.9543C166.786 23.5379 167.463 23.927 168.431 24.0243H169.204C170.172 24.0243 171.139 23.6352 172.204 22.8571L172.494 22.5653V23.6352H175.783L177.041 14.7841C177.137 14.3951 177.137 14.006 177.137 13.7142C177.234 12.7416 176.847 11.9635 176.073 11.4771ZM172.977 17.7993L173.268 17.8966L172.784 21.0091L172.494 21.2036C172.204 21.3981 171.913 21.4954 171.623 21.4954C171.333 21.5926 171.043 21.5926 170.752 21.5926C170.269 21.4954 169.978 21.3981 169.688 21.1063C169.398 20.8145 169.301 20.5227 169.301 20.1337C169.301 20.0364 169.301 19.8419 169.398 19.6474C169.398 19.4528 169.495 19.2583 169.591 18.9665C169.688 18.6747 169.978 18.4802 170.462 18.1884C170.946 17.8966 171.526 17.7993 172.107 17.7993H172.977ZM185.844 14.006L186.618 10.7963H186.231C185.748 10.7963 185.264 10.8936 184.877 10.9908C184.393 11.1853 184.006 11.3799 183.523 11.7689L183.232 11.9635L183.329 10.8936L179.75 11.0881L178.008 23.7325H181.491L182.845 14.2978L183.136 14.2005L183.329 14.1033C183.909 13.9088 184.393 13.8115 184.78 13.8115C184.974 13.8115 185.167 13.8115 185.457 13.9088L185.844 14.006ZM197.647 11.0881H193.777L190.778 14.5896L190.295 15.1732L190.004 15.854L190.101 15.465L190.198 15.1732V14.7841L190.295 14.4923L191.552 5.73854L187.973 6.1276L185.457 23.8297H188.94L189.617 19.2583V19.161L189.714 18.3829L189.811 17.8966V17.6048L190.004 18.3829L190.198 18.8692L192.81 23.8297H197.067L193.003 16.5349L197.647 11.0881ZM112.416 16.8267C112.609 17.4103 112.996 17.7021 113.19 18.1884C113.674 17.4103 113.77 16.3404 113.48 15.3677C113.383 15.0759 113.287 14.6869 113.287 14.4923C113.287 14.2005 113.577 14.006 113.77 13.7142C115.028 11.9635 116.286 10.31 118.027 9.14279C119.575 8.07289 121.22 7.29477 123.348 6.90571C124.025 6.80845 124.799 6.61392 125.573 6.71118C125.38 7.29477 124.799 7.4893 124.219 7.78109C123.638 7.97562 123.058 8.26742 122.477 8.46194C122.671 8.65647 122.961 8.65647 123.251 8.65647C124.122 8.851 124.896 8.94827 125.863 8.65647C126.347 8.55921 126.831 8.26742 127.315 8.07289C127.798 7.78109 128.282 7.39204 128.959 7.39204C129.249 7.39204 129.636 7.58656 130.023 7.78109C131.088 8.07289 132.732 7.58656 133.796 7.97562C134.087 8.07289 134.28 8.17015 134.57 8.36468C134.764 8.46194 135.054 8.75374 135.344 8.55921C135.344 8.55921 135.344 8.46194 135.441 8.46194V8.36468C135.344 8.17015 135.247 7.87836 135.151 7.68383C134.957 7.39204 134.57 7.19751 134.474 6.80845C134.377 6.71118 134.377 6.51666 134.377 6.41939C134.377 6.32213 134.28 6.22486 134.183 6.03033C133.796 5.34948 133.409 4.7659 132.926 4.18231C132.345 3.40419 131.571 2.82061 130.604 2.33429C130.12 2.04249 129.733 1.84796 129.249 1.65343C128.766 1.45891 128.088 1.45891 127.508 1.36164C126.637 1.26438 125.476 1.16711 124.606 1.26438C124.315 1.26438 124.025 1.36164 123.638 1.36164C123.348 1.36164 123.155 1.16711 122.961 1.06985C122.284 0.68079 121.607 0.388997 120.736 0.194468C119.575 -6.07744e-05 118.221 -6.07446e-05 117.253 0.583526C117.64 1.26438 119.285 1.06985 119.091 2.43155C118.995 3.1124 118.511 3.50146 118.124 3.79325C117.93 3.98778 117.737 4.08505 117.543 4.27957C115.222 6.22486 113.964 8.851 113.093 12.2553C112.996 12.6443 112.803 13.7142 112.706 13.9088C112.513 14.2005 111.739 14.2005 111.352 14.3951C110.191 14.8814 109.223 16.1458 108.353 16.6322C109.61 16.8267 111.642 16.7294 112.513 16.3404C112.319 16.5349 112.416 16.7294 112.416 16.8267Z" fill="#1E9CD8"/>
<path d="M124.799 17.7994C120.446 14.3952 119.285 13.6171 119.285 11.6718C119.285 10.0183 120.736 8.94838 121.413 8.55933C121.413 8.55933 119.769 9.14291 118.414 10.0183C116.963 10.9909 115.996 12.2554 114.931 13.6171V14.2007C114.931 17.8967 118.221 19.4529 120.833 21.5928C122.09 22.6627 122.864 23.8298 122.864 25.2888C122.864 27.9149 121.123 29.3739 118.317 29.3739C116.092 29.3739 114.157 28.2067 113.674 26.2615C113.577 25.8724 113.577 25.4833 113.577 25.0943C111.739 25.6779 110.481 27.3314 110.481 28.5958C110.481 30.9301 114.157 32.0973 116.963 32.0973C121.994 32.0973 127.508 28.5958 127.508 23.2463C127.508 20.9119 126.541 19.2584 124.799 17.7994Z" fill="#1E9CD8"/>
</g>
<defs>
<clipPath id="clip0_262_369">
<rect width="197.647" height="32" fill="white"/>
</clipPath>
</defs>
</svg>
