<svg width="305" height="339" viewBox="0 0 305 339" fill="none" xmlns="http://www.w3.org/2000/svg">
<g opacity="0.12">
<path d="M221.211 22.0351C221.596 21.2087 221.649 18.4716 218.284 17.4559C218.711 16.0664 216.583 13.1631 214.458 13.2393C215.016 11.4223 211.842 8.50359 209.243 9.2707C208.782 6.06976 205.367 6.07335 204.255 6.27177C203.905 5.27349 200.543 2.53998 196.366 3.74025C194.032 1.93444 189.75 2.19369 187.755 3.56018C186.539 2.8176 183.019 1.88016 180.973 4.26589C179.568 3.70844 174.902 4.79416 175.127 7.48163C173.812 7.05971 172.39 7.4146 171.147 8.04056C169.193 8.84398 169.224 10.4549 169.009 12.0086C167.596 11.9073 166.108 12.476 165.224 13.6441C164.274 15.0259 164.37 16.4231 165.145 17.7497C163.51 17.9405 162.145 18.5378 161.228 19.8127C160.754 20.5036 160.802 21.2022 160.817 22.0077C160.841 22.357 161.232 22.7922 161.379 23.1701C161.705 23.8191 160.119 24.7084 159.799 25.3211C158.432 27.6363 159.107 29.2835 161.573 30.6618C164.708 32.4257 169.226 32.6799 172.656 33.4818L174.249 33.8541C175.561 35.9939 174.34 38.6869 176.241 40.6206C177.057 41.3842 178.626 41.4072 179.672 41.4225C182.164 41.4322 184.688 41.3351 187.18 41.3448C187.36 41.6159 187.572 41.78 187.629 42.0224C188.289 42.8642 188.983 43.5992 189.987 44.1776C191.816 45.0634 194.104 44.4527 195.511 43.2923C196.354 42.6873 196.894 41.7826 197.312 40.8493C199.159 40.8227 200.883 40.7675 202.663 40.9547C204.166 41.1915 205.637 41.5352 207.271 41.3444C207.393 41.3731 207.516 41.4017 207.671 41.3235C209.004 40.833 209.299 39.8711 209.382 38.7449C209.54 36.9489 209.453 35.0955 209.766 33.2212C211.466 32.8167 213.255 32.5477 215.168 32.3073C217.881 32.025 221.541 32.0787 223.635 30.3916C223.635 30.3916 224.011 30.0214 224.077 29.8076C225.821 27.1222 222.951 22.7854 221.211 22.0351ZM217.155 18.5667C218.398 17.9407 222.063 20.9739 219.61 22.119C217.468 23.1075 215.604 24.0465 213.641 25.3061C211.523 26.6439 209.014 27.5465 206.806 28.7488C204.754 29.8729 202.448 31.3959 200.599 33.1403L200.665 32.9266C202.122 30.7469 204.126 28.9243 206.097 27.2085L211.447 22.6165C213.41 21.3569 215.014 19.5552 217.155 18.5667ZM216.707 17.8891C215.276 18.7001 214.057 19.6754 212.806 20.7576C210.491 22.7367 207.931 24.6586 205.583 26.7446C203.767 28.3821 201.918 30.1266 200.404 32.0638C199.962 32.6478 199.52 33.2319 199.201 33.8445C199.792 31.9206 200.505 30.0253 201.676 28.3515C203.453 25.5592 205.63 22.7459 207.986 20.2037C209.745 18.3237 211.896 16.879 213.811 14.9208C214.874 14.0238 218.359 16.7859 216.707 17.8891ZM203.64 7.84642C204.214 6.83485 208.983 8.40797 207.747 10.2956C203.819 14.5326 202.097 19.2851 200.333 24.6008C199.258 27.6718 197.816 30.6569 196.497 33.6707C196.177 34.2833 195.98 34.9246 195.75 35.6728C195.783 35.5659 195.816 35.459 195.726 35.3235C196.714 30.3991 198.068 25.5607 199.668 20.7795C201.137 16.4258 201.715 11.9786 203.64 7.84642ZM182.058 5.436C183.091 2.92804 186.889 3.81586 186.961 4.86375C187.087 7.87188 187.883 11.2656 188.288 14.2241C188.708 17.9881 188.449 21.8227 188.468 25.6077C188.448 28.2378 188.673 30.9253 189.054 33.5346C188.218 28.986 187.016 24.3516 185.78 19.8241C185.089 17.3714 184.398 14.9186 183.862 12.3876C183.383 10.0991 181.861 6.07731 182.058 5.436ZM180.603 5.89781C181.027 6.22614 182.125 9.91954 182.825 11.9161C183.573 14.6112 184.166 17.3847 184.914 20.0798C185.889 23.7446 186.775 27.2739 187.595 31.0169C187.122 29.99 186.617 29.0699 186.145 28.043C184.425 24.6625 182.706 21.2821 181.42 17.7738C180.068 14.4793 178.25 11.4195 176.465 8.25282C175.927 7.43967 178.024 4.03472 180.603 5.89781ZM169.383 13.3562C169.873 13.4707 173.782 16.5612 175.594 18.3594C176.589 19.3939 177.118 20.6633 177.958 21.7761C178.798 22.889 179.859 23.7098 180.855 24.7444C183.18 27.0064 184.221 30.4574 185.304 33.3453C185.507 33.9657 185.711 34.586 186.037 35.235C185.588 34.5574 185.107 33.9866 184.626 33.4159C182.701 31.1329 180.065 29.0274 177.641 27.0861C174.066 24.1884 168.731 18.4734 166.943 17.0245C165.655 15.2341 166.051 12.2336 169.383 13.3562ZM166.018 18.7556C168.166 19.0287 173.747 24.8011 176.954 27.6128C178.586 29.1399 180.25 30.5601 181.915 31.9804C180.732 31.1309 179.548 30.2814 178.52 29.3537C176.308 27.5765 174.21 26.2842 171.622 24.8773C168.789 23.4131 164.427 23.0806 163.112 22.6587C162.165 22.3227 160.92 18.2513 166.018 18.7556ZM176.775 38.4543C176.279 37.0781 176.461 35.6313 176.209 34.3123C178.716 35.1275 181.28 36.1852 183.345 37.5844C184.439 38.2983 185.378 39.0905 186.283 39.9896C182.925 40.2356 177.622 40.8288 176.775 38.4543ZM178.865 33.7876C176.179 32.7014 173.361 32.0427 170.51 31.4909C167.169 30.8245 159.368 30.1463 161.114 25.743C161.434 25.1304 161.744 24.9739 162.422 24.9033C164.923 24.4569 167.783 24.5525 170.493 25.9881C173.571 27.5095 177.074 29.3593 179.587 31.4362C181.587 33.0492 183.807 34.3702 185.586 36.2752C186.279 37.0101 186.71 38.6001 186.89 38.8712C184.989 36.9375 181.184 34.788 178.865 33.7876ZM182.178 24.7101C181.518 23.8683 180.579 23.0762 179.886 22.3413C178.556 21.1139 177.814 19.6803 176.917 18.3251C175.36 16.128 171.385 13.2513 170.634 12.274C168.987 9.94144 173.477 6.86688 175.557 9.07159C177.082 11.3755 179.486 15.9471 180.952 19.7264C182.36 23.2633 184.202 26.6724 185.921 30.0529C187.551 33.2978 188.413 36.4777 189.176 39.9784C189.265 40.1139 189.322 40.3563 189.257 40.5701C188.204 39.2931 185.473 29.3752 182.178 24.7101ZM191.803 42.54C190.515 40.7496 190.585 37.1001 190.285 35.0826C189.7 31.3439 189.454 27.5708 189.549 23.7983C189.578 20.7119 189.696 17.7611 189.447 14.7243C189.141 11.4451 188.558 8.21555 188.374 4.96501C188.433 3.48959 195.876 3.62567 195.784 5.20798C195.421 8.10154 195.18 11.0238 194.538 13.9669C193.799 17.2308 193.214 20.4163 193.087 23.8234C192.927 27.3373 192.522 30.7939 192.239 34.2792C192.064 36.9876 192.591 39.9748 191.803 42.54ZM194.713 35.2013C194.654 36.6767 194.105 38.0376 193.768 39.5626C193.595 40.5532 193.625 42.1642 192.628 42.8474C193.317 40.6028 192.994 38.236 193.005 36.062C193.042 32.5194 193.57 29.0915 193.852 25.6062C194.385 18.7425 195.897 12.108 196.92 5.35885C197.298 3.27076 203.627 5.32309 202.848 7.43215C200.612 11.7208 200.124 16.3036 198.745 20.7928C197.268 25.6026 195.823 30.3055 194.836 35.2299C194.746 35.0944 194.746 35.0944 194.713 35.2013ZM195.31 40.9541C195.54 40.2059 195.68 39.3223 195.82 38.4385C196.527 35.2816 198.092 32.3251 199.411 29.3114C200.731 26.2976 201.683 23.198 202.88 20.1556C204.208 16.6857 206.083 13.5727 208.783 10.7671C210.6 9.12958 213.879 12.9892 213.183 13.9722C212.365 14.9264 211.334 15.7166 210.303 16.5067C209.052 17.5888 207.857 18.9134 206.851 20.0528C204.838 22.3317 203.159 24.8033 201.391 27.1394C199.812 29.2904 198.934 31.7201 198.179 34.1785C197.367 36.3944 196.702 38.9883 195.31 40.9541ZM208.094 36.9545C208.02 37.6244 208.474 39.5637 207.575 39.9263C205.941 40.117 204.348 39.7447 202.723 39.4793C201.342 39.2711 199.741 39.355 198.295 39.3606C199.367 38.0074 200.708 37.0608 202.294 36.1715C204.379 34.9405 206.333 34.1371 208.377 33.4692L208.094 36.9545ZM222.884 29.4143C221.911 30.4468 219.852 30.3093 218.34 30.5286L212.604 31.2497C209.735 31.6102 207.136 32.3773 204.528 33.6006C202.386 34.5892 200.301 35.8201 198.673 37.2725C198.772 36.9519 198.993 36.6599 199.091 36.3392C201.179 33.3904 204.859 30.8139 208.031 29.0352C209.773 28.0677 211.694 27.3711 213.435 26.4036C215.643 25.2012 217.606 23.9416 219.993 23.0104C221.97 22.5563 223.965 27.6049 222.884 29.4143ZM183.54 110.489C183.384 110.568 183.262 110.539 183.106 110.617C180.091 110.6 176.963 110.098 174.047 109.759C171.253 109.45 168.516 109.383 165.722 109.074C163.051 108.793 160.577 107.871 157.938 107.483C155.545 107.153 153.232 107.414 150.863 107.433C149.417 107.439 148.502 106.996 147.441 106.175C146.29 105.218 145.026 103.777 146.8 102.703C148.73 101.55 150.92 101.26 153.11 100.97C155.112 100.865 156.722 100.325 158.398 99.5715C159.919 98.896 161.685 98.2777 162.846 97.06C163.067 96.768 162.921 96.39 162.553 96.3041C160.56 95.9528 158.81 97.3765 157.077 97.8879C154.478 98.655 151.741 98.588 149.028 98.8703C147.361 99.168 145.84 99.8435 144.116 99.8988C141.959 100.082 142.672 98.1866 143.736 97.2895C144.611 96.5777 145.543 96.1082 146.508 95.5318C148.127 94.5356 149.02 92.9114 150.092 91.5582C151.484 89.5923 153.757 88.1762 155.875 86.8384C157.494 85.8421 159.316 85.4663 160.846 84.3345C162.596 82.9108 162.485 80.7081 164.235 79.2844C164.767 78.8358 164.163 78.2365 163.542 78.5494C162.643 78.912 161.833 79.4101 161.146 79.9369C160.238 80.7556 159.632 81.8741 158.601 82.6643C157.35 83.7464 155.584 84.3646 154.153 85.1757C152.722 85.9868 151.536 86.8552 150.318 87.8305C147.815 89.9948 146.136 92.4664 143.209 94.3024C142.71 94.644 142.121 94.8501 141.712 95.3272L141.148 95.8826C140.846 95.5829 140.789 95.3405 141.1 95.1841C142.041 94.2584 142.957 92.9834 143.686 91.8936C143.973 91.3878 143.459 90.924 142.96 91.2656C141.529 92.0767 140.113 93.6932 138.389 93.7485C137.427 92.607 136.563 91.1449 134.815 90.8508C133.312 90.614 134.261 89.2322 134.614 88.5127C134.931 87.8535 135.061 87.137 134.992 86.4245C134.734 83.8439 136.601 81.1872 138.181 79.0362C139.253 77.683 140.202 76.3012 140.049 74.6616C140.025 74.3123 139.535 74.1977 139.225 74.3542C137.45 75.4287 137.113 76.9537 136.343 78.6066C135.826 79.8606 134.853 80.8931 134.124 81.9829C133.395 83.0727 133.067 84.1416 132.706 85.3173C132.345 86.493 132.05 87.455 131.321 88.5448C130.691 89.314 129.708 90.8027 128.417 90.7301C127.527 90.6365 126.735 90.2222 125.812 90.2355C124.644 90.1915 122.6 90.8594 121.727 89.8535C120.854 88.8475 121.535 87.0591 121.774 85.8547C122.045 84.5435 121.883 83.3601 121.754 82.0698C121.35 79.1113 120.913 76.2596 120.508 73.3011C120.209 71.2836 119.123 70.1135 118.08 68.3803C117.216 66.9181 116.573 65.164 114.899 64.2C114.565 64.0072 114.066 64.3488 113.967 64.6695C113.932 66.4942 114.118 68.0269 115.072 69.6245C115.699 70.5732 116.483 71.4436 116.955 72.4705C117.729 73.7971 117.605 75.4864 117.545 76.9618L117.48 77.1755C117.641 78.3589 118.465 91.4966 116.562 91.2808C114.658 91.065 113.831 92.4755 112.009 92.8513C111.33 92.9219 110.685 92.8856 110.097 93.0917C109.009 93.6394 108.101 94.4582 106.933 94.4142C104.964 94.4121 102.522 93.3831 100.816 92.526C99.3545 91.7262 97.9348 90.3632 96.1451 90.6322C95.5894 90.7314 95.3355 91.1303 95.6046 91.5369C97.5625 93.713 100.371 94.8279 102.706 96.6337C102.673 96.7405 102.64 96.8475 102.73 96.983C103.145 97.7675 102.213 98.2369 102.539 98.8859C102.979 100.02 103.149 100.747 102.298 101.808C101.856 102.392 101.659 103.034 101.618 103.597C101.615 105.314 100.136 105.427 98.6006 105.297C96.0518 105.045 94.0763 103.781 91.7245 102.888C90.8997 102.58 89.854 102.565 88.9307 102.578C87.2396 102.527 85.9816 102.347 84.3649 101.625C79.6372 99.4893 74.9576 98.0517 69.7704 97.4119C68.1121 97.2533 66.0862 97.0089 64.5984 97.5775C63.4213 97.9897 63.9266 98.9098 64.6858 99.4309C65.1102 99.7592 65.9109 99.7173 66.4666 99.6181C67.9127 99.6125 69.081 99.6565 70.4615 99.8646C73.3122 100.416 76.0643 101.289 78.5626 102.56C80.9713 103.696 83.0365 105.095 85.6005 106.153C87.9194 107.153 90.4923 107.755 93.0082 108.114C95.0013 108.465 96.8806 108.332 98.8825 108.227C100.606 108.172 101.153 108.529 101.429 110.197C101.623 111.273 102.562 112.066 102.634 113.113C102.625 113.57 102.404 113.862 102.183 114.154C102.061 114.125 102.028 114.232 101.905 114.203C101.75 114.281 101.717 114.388 101.717 114.388C99.5753 115.377 94.8125 115.065 93.3664 115.071C92.721 115.035 92.4255 115.997 93.1934 116.062C94.6964 116.298 96.0025 117.177 97.5711 117.2C99.6627 117.23 102.214 115.765 104.067 117C103.944 116.971 101.638 118.494 101.45 118.679C100.321 119.79 99.9926 120.859 98.227 121.477C96.2164 122.038 94.3523 122.977 92.521 123.809C90.6897 124.641 88.5325 124.824 86.5787 125.628C83.2597 127.028 81.1722 129.977 77.8203 131.485C77.2318 131.691 77.4921 132.554 78.2032 132.376C79.6253 132.021 81.0802 131.559 82.5023 131.205C82.7473 131.262 83.1477 131.241 83.3359 131.056C85.8237 128.086 91.0702 127.25 94.9274 126.663C96.8724 126.316 98.7605 125.726 100.502 124.758C102.211 123.898 103.373 122.68 104.78 121.52C106.718 119.911 107.768 122.905 108.641 123.911C109.032 124.347 109.4 124.433 109.98 124.683C111.662 125.19 110.157 126.672 109.616 127.576C108.117 130.319 103.35 133.443 104.301 136.759C104.415 137.243 105.093 137.173 105.347 136.774C107.237 134.466 109.764 132.651 111.867 130.508C112.874 129.369 113.703 126.24 115.851 126.514C117.109 126.693 118.072 127.835 119.199 128.442C120.66 129.241 122.581 128.545 123.158 130.513C123.825 132.616 122.867 134.454 124.4 136.302C124.702 136.602 125.168 136.367 125.357 136.182C126.494 134.615 126.44 132.655 126.475 130.83L126.469 129.568C126.438 127.957 128.993 129.471 129.418 129.799C130.634 130.542 132.104 130.886 133.443 131.657C138.162 134.249 143.92 135.595 149.534 134.846C150.09 134.746 150.409 134.134 149.83 133.884C147.454 132.641 144.717 132.574 142.013 132.4C138.451 132.026 136.263 130.598 133.594 128.599C131.807 127.15 134.03 126.753 135.207 126.341C136.262 125.9 137.857 124.555 139.172 124.977C140.486 125.399 141.694 126.598 142.788 127.311C144.339 128.247 145.546 129.446 147.13 130.274C148.559 131.181 150.241 131.689 151.449 132.887C152.265 133.651 152.934 134.037 154.037 134.294C155.139 134.552 156.406 134.275 157.509 134.533C158.489 134.762 159.559 135.127 160.506 135.463C162.768 136.221 167.83 138.55 169.631 136.107C169.852 135.815 169.706 135.437 169.338 135.351C166.332 134.877 163.744 133.471 161.058 132.384C158.404 131.191 155.332 130.931 152.523 129.816C150.996 129.23 149.535 128.43 148.883 127.133C148.378 126.212 147.929 125.535 147.048 124.985C146.043 124.407 145.039 123.828 144.002 123.357C143.423 123.107 142.753 122.721 142.239 122.257C141.39 121.601 144.064 120.163 144.563 119.822C147.236 118.385 150.279 121.731 152.697 122.411C153.432 122.583 156.56 123.085 156.587 121.716C156.604 120.804 154.734 120.481 154.121 120.338C151.581 119.63 149.483 118.337 147.574 116.86C148.514 115.934 149.455 115.008 150.306 113.947C150.781 113.256 152.09 112.417 151.584 111.497C150.394 109.385 154.07 110.245 155.417 110.56C157.133 110.961 158.668 111.091 160.482 111.171C165 111.425 169.404 111.194 173.856 111.662C177.173 111.98 180.579 112.432 183.889 111.488C184.045 111.409 184.167 111.438 184.323 111.36C184.355 111.253 184.251 110.312 183.54 110.489ZM138.634 76.2781C138.437 76.9195 138.117 77.5321 137.675 78.1161C138.028 77.3966 138.225 76.7553 138.634 76.2781ZM117.259 71.0524C116.061 69.3975 115.229 67.8285 115.109 66.082C115.68 66.7882 116.096 67.5727 116.511 68.3572C116.984 69.3842 117.644 70.2259 118.305 71.0677C119.863 73.2648 119.49 76.6145 119.904 79.1169C120.212 80.6782 120.365 82.3178 120.673 83.8792C120.859 85.4119 120.31 86.7727 120.218 88.355C120.126 89.9373 120.834 91.4777 122.771 91.5867C123.939 91.6306 124.928 91.4036 126.063 91.5545C126.954 91.6481 127.746 92.0623 128.791 92.0777L128.914 92.1063L128.684 92.8545C128.389 93.8165 128.706 94.9216 128.076 95.6908L128.01 95.9045C127.502 96.7023 127.24 97.5574 126.61 98.3266C126.316 97.5707 126.457 96.687 126.196 95.8242C126.172 95.4749 125.617 95.5742 125.428 95.7593C124.192 97.6469 124.826 99.8572 123.958 101.831C123.826 102.258 124.594 102.323 124.693 102.003C125.308 100.428 125.155 98.7884 125.614 97.292C125.662 97.9906 125.743 98.5823 126.102 99.1244C126.192 99.2599 126.559 99.3458 126.747 99.1607C127.688 98.2351 128.049 97.0593 128.778 95.9695L128.811 95.8626C129.605 94.559 128.929 92.9118 130.091 91.6941C131.056 91.1177 131.662 89.9993 132.259 89.337C133.078 88.3827 133.561 87.2356 133.922 86.0599C133.971 86.7585 133.986 87.5639 133.789 88.2053C133.46 89.2741 131.71 90.6979 133.073 91.8184C133.375 92.1181 133.898 92.1257 134.421 92.1334C135.711 92.206 136.641 93.4544 137.424 94.3249C137.203 94.6169 137.227 94.9662 137.717 95.0807C138.975 95.2602 140.152 94.848 141.117 94.2717C140.741 94.6419 140.487 95.0409 140.201 95.5466C139.693 96.3444 139.896 96.9648 140.811 97.4077C141.48 97.7933 142.388 96.9745 142.764 96.6042C144.049 95.4152 146.036 94.5049 147.32 93.3159C148.76 92.0486 149.832 90.6954 151.182 89.2926C152.72 87.7047 154.805 86.4737 156.98 85.3783C158.566 84.4889 159.964 83.7847 161.126 82.5671C161.502 82.1968 161.879 81.8265 162.132 81.4276C161.526 82.5461 161.043 83.6932 159.89 84.4547C159.047 85.0597 157.903 85.365 156.971 85.8345C155.761 86.3536 154.763 87.0368 153.733 87.8269C151.67 89.2974 149.891 91.0475 148.464 93.0106C146.917 95.0547 144.563 95.8791 142.714 97.6235C142.559 97.7017 142.493 97.9155 142.305 98.1006C140.253 99.2247 138.224 100.698 136.809 102.315C135.958 103.376 136.662 101.937 136.916 101.538C137.334 100.604 137.818 99.4574 137.901 98.3313C137.966 98.1175 137.632 97.9247 137.321 98.0812C136.512 98.5793 136.004 99.3771 135.619 100.204C134.947 101.536 134.47 103.944 133.161 104.784C132.507 105.204 131.518 105.431 130.864 105.851C130.087 106.242 129.49 106.905 128.803 107.431C128.271 107.88 127.707 108.435 127.265 109.019C126.479 109.867 126.784 108.448 126.915 108.021C126.981 107.807 126.646 107.614 126.335 107.771C125.869 108.006 125.526 108.269 125.239 108.775C124.633 109.893 124.125 110.691 123.062 111.588C121.344 112.905 119.839 114.386 118.546 116.031C118.178 115.945 117.933 115.888 117.721 115.724L117.754 115.617C117.159 114.561 118.607 112.838 119.148 111.933C119.721 110.922 120.351 110.152 120.402 109.133L120.435 109.026C120.386 108.328 120.494 107.551 120.323 106.824C120.535 106.988 120.837 107.288 121.017 107.559C121.073 107.801 121.474 107.78 121.662 107.595C122.194 107.146 122.603 106.669 122.644 106.106C122.653 105.65 121.975 105.721 121.844 106.148C121.778 106.362 121.68 106.683 121.491 106.868C121.1 106.432 120.675 106.104 120.03 106.068C119.785 106.011 119.441 106.274 119.498 106.516C119.669 107.244 119.684 108.049 119.699 108.854C119.697 110.572 118.314 112.082 117.487 113.492C117.2 113.998 116.881 114.611 116.839 115.174C116.627 115.01 116.57 114.767 116.391 114.496C116.573 113.05 115.822 112.072 114.949 111.066L115.015 110.853C114.3 108.051 115.766 105.415 116.342 102.685C116.712 101.053 116.11 98.7362 116.635 97.026C116.797 98.2094 117.375 100.177 118.381 99.0379C118.946 98.4825 118.963 97.5702 119.038 96.9002C119.261 94.8904 119.084 92.9015 119.185 90.863L119.218 90.7561C119.677 89.2597 119.435 87.4846 119.428 86.2229C119.455 84.8544 119.636 83.4076 119.695 81.9322C119.665 80.3212 119.479 78.7885 119.204 77.1203C118.569 74.91 118.548 72.8429 117.259 71.0524ZM103.26 115.78C102.279 115.551 101.013 115.828 100.179 115.976C99.0349 116.282 98.0459 116.509 96.9105 116.358C98.757 116.331 100.547 116.062 102.1 115.28C102.411 115.123 102.599 114.938 102.91 114.782C104.365 114.32 106.065 113.915 107.568 114.152C107.813 114.209 109.184 114.874 108.685 115.215C108.342 115.479 107.696 115.442 107.296 115.463C105.94 115.605 104.583 115.746 103.26 115.78ZM124.394 135.04C123.808 133.529 124.464 131.391 123.756 129.851C123.797 129.287 123.594 128.667 123.358 128.154C123.097 127.291 122.356 125.857 122.741 125.031C123.093 124.311 124.065 124.997 124.334 125.403C124.693 125.945 124.618 126.615 124.699 127.207C124.714 128.013 124.574 128.896 124.679 129.837C124.58 130.158 124.637 130.4 124.661 130.75C124.758 132.147 124.911 133.786 124.394 135.04ZM146.594 134.158C144.347 134.206 142.076 133.904 139.871 133.389C142.109 133.797 144.511 133.671 146.594 134.158ZM152.135 121.248C152.87 121.42 153.45 121.67 154.185 121.842L154.062 121.813C152.983 121.905 151.979 121.326 151.065 120.884C150.608 120.662 150.15 120.441 149.726 120.112C150.485 120.634 151.31 120.941 152.135 121.248ZM148.934 119.698C148.265 119.313 147.652 119.169 146.983 118.784C145.366 118.062 142.727 117.674 142.706 115.607C142.756 114.588 143.907 115.544 144.331 115.873C144.845 116.337 147.807 119.091 148.934 119.698ZM148.394 114.188C147.764 114.957 147.011 115.697 146.259 116.438C145.141 115.375 143.052 113.626 142.224 115.037C141.684 115.941 142.124 117.075 142.972 117.732C143.609 118.224 144.344 118.396 145.046 118.675C144.924 118.646 144.768 118.724 144.768 118.724C143.036 119.236 140.362 120.673 140.482 122.419C140.611 123.71 144.066 124.861 145.103 125.332C146.017 125.775 146.866 126.432 147.249 127.323C147.518 127.73 147.721 128.35 148.146 128.679C149.174 129.606 150.3 130.213 151.705 130.771C154.391 131.857 157.43 132.224 160.239 133.339C162.714 134.261 164.934 135.582 167.507 136.183C165.84 136.481 162.696 135.173 161.626 134.808C160.066 134.329 158.27 133.336 156.702 133.313C155.378 133.348 154.21 133.304 153.05 132.804C152.348 132.525 151.687 131.683 151.173 131.219C149.655 130.177 147.883 129.534 146.487 128.52C145.092 127.506 143.696 126.493 142.145 125.557C141.263 125.008 140.178 123.837 139.043 123.687C138.307 123.515 137.596 123.692 136.82 124.083C135.454 124.681 134.212 125.307 132.724 125.875C131.081 126.522 130.908 127.513 131.96 128.79C132.833 129.796 134.106 130.781 135.445 131.552C134.865 131.302 134.286 131.052 133.739 130.695C132.49 130.059 130.93 129.58 129.713 128.837C128.832 128.288 126.847 127.48 125.694 128.242C125.673 126.175 125.603 123.409 123.192 123.991C121.026 124.63 122.428 126.905 122.949 128.631C121.61 127.86 120.008 127.943 118.58 127.037C117.608 126.351 116.58 125.424 115.257 125.458C113.132 125.534 112.231 127.615 111.281 128.996C110.487 130.3 109.113 131.354 107.861 132.436C106.92 133.361 106.012 134.18 105.071 135.106C105.507 133.26 107.699 131.252 108.927 129.821C109.59 128.945 110.22 128.176 110.638 127.242C110.99 126.523 112.143 125.761 112.038 124.82C111.957 124.229 111.688 123.822 111.109 123.572C110.864 123.515 110.341 123.507 110.096 123.45C109.328 123.385 108.912 122.6 108.676 122.087C107.958 121.002 107.307 119.705 105.583 119.76C103.859 119.815 102.344 121.752 101.281 122.649C99.1872 124.336 96.343 125.046 93.6869 125.571C89.7969 126.265 85.163 127.244 82.4958 129.943C82.4958 129.943 82.3734 129.914 82.3406 130.021C82.0299 130.178 81.6294 130.199 81.3188 130.355C83.8459 128.54 85.9486 126.397 89.3157 125.695C92.0046 125.063 94.3347 123.889 96.7545 122.851C98.3976 122.204 99.7869 121.956 100.826 120.71C101.424 120.048 101.653 119.299 102.463 118.801C103.117 118.382 103.828 118.204 104.515 117.677C105.169 117.257 105.244 116.587 104.763 116.017L104.64 115.988C105.841 115.925 107.198 115.784 108.309 115.586C109.298 115.359 109.862 114.803 109.324 113.99C108.371 112.392 105.47 112.86 103.459 113.421C103.557 113.1 103.656 112.779 103.599 112.537C103.584 111.732 102.98 111.132 102.654 110.483C102.206 109.806 102.877 108.473 102.151 107.845C101 106.889 99.2764 106.944 97.7974 107.057C95.1502 107.125 92.6015 106.873 90.0287 106.272C84.2705 104.926 79.8799 101.264 74.253 99.4908C72.2031 98.897 69.6632 98.1887 67.5388 98.2649C66.8606 98.3355 66.3048 98.4347 65.6594 98.3984C64.3686 98.3257 65.9132 97.9995 66.2808 98.0854C70.5645 98.0265 74.8153 98.7471 78.762 100.201C81.3589 101.152 83.7915 102.637 86.4869 103.267C87.5895 103.525 88.8234 103.355 89.9917 103.399C91.405 103.5 92.7439 104.272 93.993 104.907C95.822 105.793 97.8151 106.144 99.9066 106.175C100.43 106.183 101.108 106.112 101.574 105.877C102.53 105.757 103.764 105.587 103.713 106.607C103.705 107.063 104.505 107.021 104.514 106.565C104.63 105.332 103.617 105.21 102.571 105.194C102.76 105.009 102.825 104.795 102.891 104.582C103.309 103.648 102.738 102.942 103.434 101.959C103.941 101.161 104.473 100.713 104.491 99.8004C104.475 98.9949 103.905 98.2886 104.167 97.4336L104.266 97.1129C104.657 97.5481 104.893 98.0615 105.162 98.4681C105.701 99.2813 106.737 99.7528 107.431 100.488C107.733 100.787 108.297 100.232 107.996 99.9323C107.604 99.4971 107.057 99.1401 106.51 98.7832C106.086 98.4548 105.817 98.0483 105.548 97.6417C105.189 97.0996 104.708 96.5288 104.161 96.1719C104.193 96.065 104.071 96.0364 103.981 95.9008C102.072 94.4233 99.7854 93.3161 97.9981 91.8673C99.2801 92.3961 100.398 93.4593 101.557 93.9595C102.717 94.4597 103.876 94.9598 104.979 95.2176C105.705 95.8456 106.464 96.3667 107.191 96.9948C107.705 97.4586 108.219 97.9225 108.954 98.0943C110.146 98.4876 110.776 97.7184 110.426 96.7201C110.28 96.3422 109.569 96.5197 109.715 96.8976C109.829 97.3824 109.796 97.4893 109.306 97.3748C108.816 97.2602 108.514 96.9605 108.212 96.6608C107.698 96.197 107.184 95.7331 106.637 95.3761C106.76 95.4048 106.882 95.4334 107.038 95.3552C108.083 95.3705 108.672 95.1644 109.482 94.6663C109.98 94.3247 110.635 93.9048 111.435 93.8629C111.991 93.7637 112.481 93.8783 112.914 93.7504C113.936 93.4165 114.877 92.4908 115.988 92.2924C116.667 92.2218 117.213 92.5788 117.868 92.1589C118.023 92.0806 118.056 91.9738 118.211 91.8955C118.209 93.6134 118.206 95.3312 117.959 96.9918C117.861 97.3124 117.918 97.5548 117.819 97.8755C117.524 98.8374 117.281 97.0623 117.281 97.0623C117.322 96.4993 117.209 96.0144 117.095 95.5296C116.916 95.2586 116.605 95.4151 116.417 95.6002C114.846 97.295 115.749 99.9119 115.526 101.922C115.195 104.708 113.639 107.209 113.954 110.032C113.105 109.375 112.412 108.64 111.751 107.798C111.482 107.392 110.828 107.812 111.097 108.218C112.532 110.387 115.741 111.481 115.533 114.296L115.5 114.403C115.468 114.51 115.468 114.51 115.59 114.538C116.421 116.107 117.859 116.558 119.828 116.56C120.873 116.575 122.018 116.27 123.007 116.043C125.295 115.432 127.42 115.356 129.723 115.551C130.246 115.559 130.443 114.917 129.92 114.91C127.739 114.743 125.615 114.82 123.482 115.352C122.215 115.629 120.67 115.955 119.347 115.989C120.484 114.422 122.046 113.184 123.486 111.916C124.018 111.468 124.672 111.048 124.959 110.542C125.213 110.143 125.344 109.716 125.631 109.21C125.589 109.773 125.67 110.365 126.348 110.294C126.748 110.273 127.059 110.117 127.28 109.825C128.131 108.763 129.072 107.838 130.135 106.941C131.51 105.887 133.7 105.597 134.559 104.08C135.231 102.748 135.667 100.902 136.616 99.5203L136.518 99.8409C136.345 100.832 135.96 101.658 135.575 102.484C135.255 103.097 135.402 103.475 135.982 103.725C136.717 103.897 137.323 102.778 137.544 102.486C138.15 101.368 139.703 100.586 140.824 99.931C141.167 99.6676 141.633 99.4329 141.977 99.1695C141.968 99.6257 142.082 100.11 142.473 100.546C143.379 101.445 144.735 101.304 146.002 101.027C146.836 100.878 147.579 100.594 148.291 100.416C150.023 99.9049 151.87 99.8783 153.627 99.7162C155.106 99.6037 156.462 99.4626 157.762 99.079C158.906 98.7737 160.214 97.934 161.514 97.5504C159.707 98.7318 156.764 99.7623 154.974 100.031C152.629 100.399 150.66 100.397 148.395 101.357C147.341 101.798 145.232 102.68 145.116 103.913C145.056 105.388 146.386 106.616 147.537 107.572C146.524 107.45 145.634 107.356 144.498 107.205C143.273 106.919 141.941 107.409 140.74 107.472C139.294 107.478 138.075 108.453 138.449 109.801C138.799 110.799 140.792 111.15 141.838 111.166C143.284 111.16 144.763 111.048 146.242 110.935C147.598 110.794 148.898 110.41 150.254 110.269L150.189 110.483C149.869 111.096 149.639 111.844 150.276 112.336C149.908 112.25 148.427 114.081 148.394 114.188ZM156.75 110.069C155.492 109.89 152.683 108.775 150.95 109.286C147.535 109.29 144.216 110.691 140.687 110.209L139.584 109.952C138.637 109.616 138.14 108.239 140.175 108.028C141.221 108.043 142.087 107.787 143.166 107.696C144.245 107.604 145.772 108.19 146.785 108.313C147.275 108.427 152.226 108.553 153.582 108.412C156.908 108.273 159.815 109.067 163 109.812C164.993 110.163 166.897 110.379 168.956 110.517C164.961 110.27 160.802 110.558 156.75 110.069ZM172.583 110.677L172.95 110.763C174.241 110.836 175.499 111.016 176.757 111.195C175.221 111.065 173.841 110.857 172.583 110.677ZM222.288 195.958C221.849 194.824 221.245 194.225 221.794 192.864C222.179 192.038 222.041 191.204 222.026 190.398C221.978 189.7 221.488 189.585 221.873 188.759C222.16 188.253 222.046 187.768 221.687 187.226C221.631 186.983 221.263 186.898 220.985 186.947C219.906 187.039 219.784 187.01 219.156 186.061C218.797 185.519 217.27 184.933 217.656 184.107C217.975 183.494 218.196 183.202 218.025 182.475C218.001 182.126 217.634 182.04 217.233 182.061C216.767 182.295 216.212 182.395 215.689 182.387C215.249 181.253 214.376 180.247 213.127 179.611C212.547 179.361 212.057 179.247 211.412 179.21C210.399 179.088 212.296 178.042 212.639 177.779C213.425 176.932 214.13 175.493 215.453 175.458C215.976 175.466 216.197 175.174 216.418 174.882C217.18 173.685 215.064 173.305 215.572 172.507C216.333 171.311 216.826 169.707 218.191 169.11C218.968 168.719 219.206 167.515 218.569 167.022C217.721 166.365 217.386 166.173 217.314 165.125C217.266 164.426 217.062 163.806 216.614 163.128C215.929 161.937 215.792 161.103 216.676 159.935C216.929 159.536 217.183 159.137 216.914 158.731C216.409 157.81 215.208 157.873 214.162 157.858C212.07 157.827 211.077 155.075 209.183 154.403C207.901 153.874 206.831 153.509 206.702 152.219C206.621 151.627 206.409 151.463 205.829 151.213C204.792 150.742 204.153 151.967 203.711 152.551C203.269 153.135 200.998 152.833 200.353 152.797C199.029 152.831 197.885 153.137 196.618 153.413C195.196 153.768 195.008 153.953 193.759 153.318C193.302 153.096 192.844 152.875 192.346 153.216C190.637 154.077 192.636 155.69 191.361 156.423C189.742 157.419 188.066 158.173 186.961 159.633L186.862 159.954C185.584 162.404 184.093 159.994 182.425 160.291C181.747 160.362 181.215 160.81 181.296 161.402C181.32 161.751 181.467 162.129 181.646 162.4C182.176 163.67 181.668 164.467 180.515 165.229C179.983 165.677 179.051 166.147 178.732 166.759C178.666 166.973 178.478 167.158 178.412 167.372C177.797 168.947 177.415 168.055 176.426 168.282C175.715 168.46 174.872 169.065 175.043 169.792C175.498 171.731 174.172 173.483 172.789 174.993C172.036 175.734 170.142 175.062 169.756 175.888C169.535 176.18 169.282 176.579 169.395 177.064C169.907 179.246 167.111 180.654 165.494 179.932C165.07 179.604 164.448 179.917 164.317 180.345C164.21 181.121 164.413 181.742 163.604 182.24C162.95 182.66 162.238 182.837 161.707 183.286C161.363 183.549 160.921 184.133 161.313 184.568C162.798 185.717 168.263 186.308 167.353 188.844C167.222 189.272 167.646 189.6 168.079 189.472C168.823 189.188 169.633 188.69 170.433 188.648C172.558 188.572 172.973 189.356 173.667 190.091C174.572 190.99 173.737 192.857 174.054 193.962C174.078 194.311 174.69 194.454 175.001 194.298C176.653 193.195 177.812 193.695 179.396 194.523C180.556 195.024 180.44 196.257 180.667 197.226C180.691 197.576 181.181 197.69 181.614 197.562C183.478 196.623 184.516 197.095 186.41 197.767C188.06 198.382 187.985 199.052 188.081 200.449C188.073 200.905 188.873 200.863 189.217 200.6C190.689 199.226 191.825 199.376 193.654 200.262C194.78 200.869 194.73 201.888 194.957 202.858C195.071 203.343 195.716 203.379 196.093 203.009C197.001 202.19 197.574 201.179 199.445 201.501C200.057 201.644 200.637 201.895 201.282 201.931C202.418 202.082 203.553 202.233 203.347 203.33C203.297 204.349 204.089 204.764 205.111 204.43C205.544 204.302 205.92 203.932 206.052 203.504C206.437 202.678 207.907 203.021 208.83 203.008C209.876 203.023 210.653 202.632 211.462 202.134C213.081 201.138 213.324 202.913 213.805 203.484C214.107 203.783 214.573 203.549 214.794 203.257C215.203 202.779 215.236 202.673 215.278 202.11C215.492 200.556 216.081 200.35 217.201 199.695C218.787 198.806 219.59 197.046 221.535 196.699C222.181 196.735 222.557 196.365 222.288 195.958ZM165.779 181.144C167.837 181.282 169.358 180.606 170.176 179.652C172.883 178.108 175.679 176.7 178.352 175.263C181.525 173.484 184.877 171.976 188.196 170.576C191.948 169.047 195.79 167.654 199.892 167.124C201.927 166.912 203.896 166.914 205.799 167.13C207.547 167.424 209.753 167.939 211.026 168.924C211.36 169.117 211.737 168.747 211.557 168.476C209.313 166.806 205.784 166.324 202.925 166.229C198.741 166.167 194.565 167.368 190.845 168.789C187.004 170.182 183.153 172.032 179.58 173.831C177.716 174.77 176.219 175.795 174.478 176.763L170.749 178.641C170.815 178.427 170.914 178.106 170.857 177.864C170.833 177.514 170.761 176.467 170.916 176.388C171.529 176.532 172.207 176.461 172.706 176.119C174.325 175.123 175.062 173.577 176.167 172.117C176.576 171.64 176.618 171.077 176.66 170.514C176.635 170.164 176.611 169.815 176.432 169.544C176.196 169.031 177.609 169.132 177.765 169.054C178.32 168.954 178.786 168.72 179.073 168.214C179.679 167.095 180.154 166.405 181.307 165.643C182.337 164.853 183.401 163.956 183.149 162.637C183.068 162.045 182.71 161.503 182.473 160.99C182.53 161.232 184.024 161.925 184.392 162.011C186.018 162.276 187.302 161.087 187.941 159.862C189.455 157.925 194.146 157.188 192.818 154.243C192.818 154.243 193.945 154.85 194.067 154.879C194.958 154.972 195.391 154.845 196.257 154.589C197.59 154.099 198.856 153.822 200.18 153.788C200.981 153.746 202.418 154.196 203.162 153.912C203.628 153.677 204.061 153.549 204.438 153.179C204.814 152.809 205.109 151.847 205.337 152.816C205.58 154.592 207.304 154.536 208.699 155.55C210.005 156.428 210.681 158.075 212.175 158.768C212.633 158.99 213.433 158.948 213.956 158.956C215.647 159.007 215.238 159.484 214.542 160.467C213.691 161.528 214.711 162.912 215.371 163.754C216.301 165.002 215.441 166.52 216.837 167.533C217.808 168.219 216.509 168.602 216.132 168.973C215.666 169.207 215.502 169.742 215.338 170.276C215.108 171.024 213.316 173.011 213.977 173.853C214.279 174.153 214.491 174.317 214.858 174.403C215.103 174.46 214.18 174.473 213.992 174.658C213.338 175.078 212.773 175.634 212.209 176.189C212.447 174.985 212.474 173.616 212.434 172.461C212.41 172.112 211.732 172.183 211.756 172.532C211.819 174.036 211.907 175.889 211.202 177.328C210.859 177.592 210.605 177.991 210.261 178.254C210.106 178.332 210.073 178.439 209.918 178.518C209.837 177.926 209.666 177.199 209.308 176.656C209.128 176.385 208.507 176.698 208.686 176.969C209.045 177.512 209.216 178.239 209.296 178.83C203.919 173.678 193.606 175.621 186.904 176.918C182.42 177.787 178.001 178.897 173.672 180.24C171.784 180.83 169.929 181.313 167.951 181.767C167.796 181.845 167.673 181.816 167.518 181.895C168.106 181.689 168.695 181.482 169.25 181.383C171.506 180.88 173.615 179.998 175.814 179.252C180.056 177.838 184.021 176.473 188.41 175.437C194.376 173.968 203.049 170.955 207.969 175.885C208.27 176.185 208.68 175.708 208.5 175.437C203.882 170.806 196.15 172.893 190.307 174.391C186.163 175.485 182.052 176.471 178.055 177.943C175.7 178.767 173.346 179.591 170.902 180.28C169.881 180.614 168.736 180.919 167.592 181.225C166.848 181.509 166.104 181.793 165.271 181.942C165.77 181.601 165.835 181.387 165.779 181.144ZM200.184 180.71C197.136 180.799 194.056 180.996 190.886 181.057C187.961 181.175 185.036 181.293 182.233 181.44C180.754 181.552 179.218 181.422 177.617 181.506C177.895 181.456 178.328 181.329 178.606 181.279C179.595 181.052 180.551 180.932 181.629 180.84C183.819 180.55 186.132 180.289 188.322 179.999C194.802 178.994 202.394 177.79 208.789 179.628C205.879 180.552 203.232 180.62 200.184 180.71ZM176.177 182.773C178.49 182.512 180.826 182.6 183.073 182.552C185.72 182.484 188.343 182.066 191.023 181.891C195.305 181.631 199.644 181.615 203.892 181.462C205.494 181.378 207.496 181.273 208.926 180.462C208.721 181.56 208.303 182.493 207.484 183.448C206.102 184.957 203.69 185.539 201.656 185.751C197.554 186.281 193.069 185.92 189.074 185.674C181.852 185.246 174.516 184.333 167.229 184.118C170.342 183.815 173.309 183.134 176.177 182.773ZM172.887 181.088C176.941 179.859 180.929 178.844 185.04 177.857C189.118 176.978 193.253 176.34 197.412 176.052C200.648 175.778 204.422 176.316 207.345 177.916C205.05 177.265 202.525 177.362 200.001 177.459C195.719 177.719 191.429 178.434 187.261 179.178C183.248 179.844 179.113 180.481 175.101 181.147C173.156 181.494 171.211 181.841 169.355 182.324C167.811 182.651 166.201 183.191 164.533 183.488C167.052 182.129 170.165 181.826 172.887 181.088ZM169.062 187.984C168.981 187.392 168.745 186.878 168.32 186.55C169.267 186.886 170.092 187.193 171.072 187.422C170.272 187.464 169.65 187.777 169.062 187.984ZM220.742 191.587C220.847 192.528 219.906 193.454 220.011 194.395C220.092 194.987 220.483 195.422 220.719 195.935C219.076 196.582 218.282 197.886 216.696 198.775C216.042 199.195 215.053 199.422 214.578 200.113C214.357 200.405 214.226 200.833 214.217 201.289C214.127 201.153 213.948 200.882 213.703 200.825C213 200.546 212.077 200.559 211.423 200.979C210.613 201.477 210.115 201.819 208.913 201.882C208.113 201.924 207.378 201.752 206.577 201.794C205.776 201.836 205.367 202.313 205.048 202.926C204.63 203.859 204.844 202.305 204.575 201.899C204.249 201.25 202.869 201.042 202.134 200.87C200.786 200.555 199.594 200.161 198.147 200.167C197.347 200.209 196.66 200.736 196.095 201.291C195.721 199.944 195.15 199.237 193.289 198.458C191.794 197.765 190.495 198.149 189.464 198.939C189.245 197.513 188.854 197.078 186.837 196.377C184.82 195.677 183.84 195.448 182.074 196.066C181.879 194.989 181.619 194.127 180.403 193.384C178.729 192.42 177.136 192.048 175.461 192.802C175.388 191.754 175.717 190.685 175.122 189.629C174.886 189.116 174.126 188.595 173.457 188.209L179.484 189.962C184.107 191.157 188.41 192.965 193.164 193.732C193.532 193.818 193.851 193.206 193.328 193.198C188.819 192.488 184.573 190.922 180.228 189.677C176.128 188.49 171.53 187.644 167.627 185.815C174.03 187.198 180.377 188.337 186.912 189.292C190.441 189.774 193.913 190.012 197.418 190.144C200.678 190.219 203.97 190.187 206.946 189.05C207.256 188.893 207.298 188.33 206.832 188.565C203.701 189.78 200.196 189.648 196.781 189.652C193.121 189.598 189.437 189.195 185.785 188.685C179.218 187.837 172.659 186.533 166.165 185.015C175.299 185.203 184.35 186.517 193.607 186.733C197.757 186.902 202.03 187.098 205.815 185.463C208.39 184.347 209.226 182.48 209.67 180.178C209.793 180.207 209.76 180.314 209.883 180.342C209.85 180.449 209.817 180.556 209.94 180.585C210.633 181.32 210.337 182.281 210.32 183.194C210.344 183.543 211.022 183.473 210.998 183.123C211.016 182.211 211.156 181.327 210.74 180.543C211.108 180.629 211.386 180.579 211.631 180.636C212.153 180.644 212.733 180.894 213.125 181.329C215.695 183.649 214.454 188.972 212.842 191.23C209.461 195.824 201.154 194.225 196.113 193.964C195.713 193.985 195.426 194.49 195.949 194.498C201.758 194.825 210.22 196.345 213.708 190.974C214.911 189.193 215.675 186.279 215.107 183.855C215.63 183.862 216.185 183.763 216.586 183.742C216.454 184.17 216.168 184.675 216.192 185.025C216.15 185.588 216.909 186.109 217.334 186.437C218.06 187.065 218.915 188.984 220.337 188.629C221.637 188.245 220.427 188.764 220.197 189.512C220.066 189.94 220.816 190.917 220.742 191.587Z" fill="white"/>
<path d="M182.674 169.743C182.584 169.607 182.339 169.55 182.306 169.657C181.84 169.892 181.464 170.262 181.21 170.661C181.177 170.768 181.112 170.982 181.357 171.039C181.602 171.096 181.757 171.018 181.79 170.911C182.011 170.619 182.354 170.356 182.665 170.199C182.608 169.957 182.763 169.878 182.674 169.743ZM189.371 165.466C188.594 165.857 187.907 166.384 187.008 166.747C186.575 166.874 186.934 167.417 187.244 167.26C188.144 166.897 188.831 166.371 189.607 165.979C189.951 165.716 189.715 165.203 189.371 165.466ZM208.042 164.103C206.425 163.381 204.865 162.902 203.052 162.822C200.593 162.705 198.304 163.316 195.902 163.441C195.501 163.462 195.46 164.025 195.86 164.004C197.862 163.9 199.873 163.339 201.964 163.369C204.089 163.293 205.894 163.83 207.755 164.608C207.968 164.773 208.377 164.295 208.042 164.103ZM214.611 169.648C214.205 168.407 213.52 167.216 212.525 166.182C212.223 165.882 211.813 166.359 211.993 166.63C212.898 167.529 213.494 168.585 213.9 169.825C214.08 170.096 214.668 169.89 214.611 169.648ZM195.515 159.57C193.537 160.025 191.404 160.557 189.842 161.796C189.498 162.059 189.923 162.387 190.266 162.124C191.796 160.992 193.773 160.538 195.751 160.084C196.029 160.034 195.948 159.443 195.515 159.57ZM204.969 159.146C203.442 158.559 201.628 158.479 199.961 158.777C199.56 158.798 199.519 159.361 199.919 159.34C201.431 159.12 203.122 159.172 204.682 159.651C205.017 159.844 205.426 159.367 204.969 159.146ZM211.427 162.488C210.578 161.832 209.762 161.068 208.88 160.518C208.546 160.325 208.136 160.803 208.471 160.995C209.353 161.545 210.079 162.173 210.928 162.83C211.197 163.236 211.728 162.788 211.427 162.488ZM209.827 184.797C209.729 185.118 209.565 185.652 209.132 185.78C208.698 185.908 208.812 186.393 209.245 186.265C209.989 185.98 210.153 185.446 210.35 184.805C210.694 184.541 210.048 184.505 209.827 184.797ZM183.157 192.539C182.21 192.203 181.361 191.546 180.48 190.996C180.145 190.803 179.736 191.28 180.07 191.473C180.952 192.023 181.801 192.68 182.748 193.016C183.083 193.208 183.492 192.731 183.157 192.539ZM191.471 195.398C190.368 195.141 189.265 194.883 188.261 194.304C187.926 194.112 187.517 194.589 187.852 194.782C188.856 195.36 190.081 195.646 191.184 195.904C191.674 196.019 191.961 195.513 191.471 195.398ZM202.652 197.898C200.839 197.817 199.034 197.281 197.253 197.094C196.852 197.115 196.566 197.621 197.089 197.628C198.902 197.709 200.707 198.245 202.488 198.432C202.766 198.383 203.053 197.877 202.652 197.898ZM211.051 197.914C209.94 198.112 209.041 198.475 207.84 198.538C207.439 198.559 207.397 199.122 207.798 199.101C208.999 199.038 210.021 198.704 211.132 198.505C211.598 198.271 211.484 197.786 211.051 197.914ZM216.257 191.226C216.173 192.352 215.355 193.306 215.117 194.511C214.985 194.938 215.631 194.975 215.729 194.654C216.09 193.478 216.908 192.524 216.902 191.262C216.911 190.806 216.233 190.877 216.257 191.226ZM215.846 187.006L215.811 188.831C215.835 189.18 216.513 189.109 216.489 188.76L216.524 186.935C216.5 186.586 215.822 186.656 215.846 187.006ZM80.3276 19.001C79.8311 17.6248 78.1007 16.4183 76.9171 15.5689C74.9745 14.1983 73.1216 12.9632 71.179 11.5926C66.8693 8.52312 62.3714 5.63874 57.8736 2.75435C55.3512 1.13367 52.7872 0.0760388 49.5274 0.00135511C46.39 -0.0446888 43.4145 1.09268 40.415 1.88075C37.2929 2.64018 34.2365 3.18585 31.1056 4.40146C27.8194 5.69531 24.7694 7.50263 21.6626 9.06754C19.3653 10.1343 16.9783 11.0656 14.5913 11.9969L14.4687 11.9682C14.3462 11.9396 14.3134 12.0465 14.1909 12.0178L14.1581 12.1248C12.0818 12.8995 9.88297 13.6457 7.86352 14.6629C4.94485 16.0426 -0.11578 18.4109 0.00202073 21.8752C0.0588799 22.1176 0.148516 22.2531 0.393545 22.3104C0.564123 23.0376 0.857205 23.7936 1.33847 24.3643C1.73004 24.7995 2.24417 25.2634 2.79109 25.6203C4.06429 26.6053 4.65926 27.6609 5.15576 29.0371C5.91252 31.276 7.14172 34.5419 10.6313 33.8684C13.6878 33.3227 16.5343 30.8951 19.317 33.3786C21.4062 35.1271 20.9682 38.6906 21.2918 41.0574C21.6242 42.968 22.1928 45.3922 24.4878 46.0432C26.5377 46.637 28.2968 44.757 29.4587 43.5393C30.2442 42.6919 30.94 41.709 31.7584 40.7547C32.3885 39.9855 33.2725 38.8175 34.3511 38.7259C36.8189 38.3864 37.4725 44.3817 38.6472 45.6873C40.3601 47.8061 43.957 46.3558 45.3726 44.7392C46.3792 43.5998 46.9285 42.2389 47.8453 40.964C49.2369 38.9981 51.4662 39.8629 52.886 41.2259C54.6076 42.8885 57.1212 44.9653 59.6811 43.0434C60.8999 42.0681 61.2369 40.5432 62.88 39.8962C64.7681 39.3066 66.3784 38.7665 68.0632 37.5565C71.4326 35.1365 73.496 31.8384 75.8942 28.7332C78.1041 25.813 81.5481 22.7231 80.3276 19.001ZM78.6382 23.6467C77.7455 25.2709 76.3625 26.7806 75.1022 28.3189C73.809 29.9641 72.6056 31.7449 71.3125 33.3901C70.0193 35.0353 68.3914 36.4877 66.3391 37.6117C64.7529 38.5011 62.8736 38.6346 61.5324 39.5812C60.0358 40.6061 59.6899 42.5872 57.5655 42.6634C55.6862 42.7969 54.4306 40.8995 53.3127 39.8363C51.346 38.1164 48.7228 38.5342 47.1189 40.3359C46.1124 41.4754 45.6857 42.8648 44.6464 44.1111C43.828 45.0654 42.651 45.4776 41.2946 45.6188C40.0934 45.6817 39.3431 44.7044 38.9275 43.9198C38.1291 42.2439 37.7751 38.2662 35.1694 37.7717C33.3317 37.3421 31.8504 39.1724 30.8439 40.3118C29.6164 41.7432 27.8636 44.8848 25.5839 45.0393C22.4706 45.3425 22.2895 40.3742 22.0469 38.5991C21.7802 36.4747 21.7017 34.1651 20.1025 32.5311C18.2912 30.733 15.8233 31.0725 13.4692 31.8969C12.2921 32.3091 11.2046 32.8569 10.0035 32.9198C7.60129 33.0456 6.67402 30.0794 6.21035 28.5963C5.7316 27.1425 4.82335 25.824 3.5766 24.7729C2.0015 23.4882 1.31682 22.2972 1.26232 20.3369C1.32797 20.1232 1.51613 19.938 1.58179 19.7242C1.57943 21.442 2.59884 22.826 4.11707 23.8682C4.45179 24.0611 4.98343 23.6125 4.64871 23.4197C3.00796 22.3488 2.14391 20.8867 2.30161 19.0906C2.33444 18.9838 2.3345 18.9837 2.21198 18.9551C2.77649 18.3997 3.46348 17.8729 4.11768 17.453C3.38023 18.999 3.28826 20.5814 4.51985 22.1294C4.82173 22.4291 5.443 22.1161 5.14112 21.8165C3.81985 20.1329 4.03437 18.5792 5.08249 16.8767L5.11536 16.7698C5.73673 16.4568 6.20274 16.2221 6.70159 15.8805C6.08666 17.4551 5.8394 19.1157 6.20458 20.9195C6.35113 21.2974 6.93961 21.0913 6.91558 20.742C6.55039 18.9383 6.95315 17.1995 7.60091 15.5179C8.22227 15.205 8.8108 14.9988 9.43217 14.6858C8.13902 16.331 7.70344 18.1767 8.40334 20.1733C8.54989 20.5512 9.20403 20.1314 9.02466 19.8603C8.20224 17.8351 9.10389 15.7547 10.6421 14.1668L12.4077 13.5485C11.5894 14.5028 10.8935 15.4857 10.6221 16.797C10.4908 17.2245 11.1362 17.2608 11.2347 16.9402C11.5717 15.4151 12.5782 14.2757 13.7072 13.165L15.6282 12.4684C14.3975 13.3915 13.5514 14.6436 13.2213 16.0299C13.09 16.4574 13.9235 16.3086 13.8995 15.9593C14.1469 14.2987 15.5538 13.1383 17.0504 12.1135C17.0832 12.0066 17.2057 12.0352 17.2385 11.9283C17.9824 11.644 18.7263 11.3597 19.503 10.9684C18.0064 11.9933 16.3873 12.9895 15.6498 14.5355C15.396 14.9344 15.9758 15.1845 16.2296 14.7856C17.188 12.9476 19.1748 12.0373 20.8923 10.7204C21.0805 10.5353 20.9907 10.3998 20.901 10.2642C23.509 9.04095 26.0602 7.57525 28.6681 6.35197C30.8429 5.25653 33.23 4.32525 35.641 3.74328C38.0848 3.05442 40.6751 2.7435 43.119 2.05464C45.2522 1.52227 47.3854 0.989927 49.7548 0.971018C52.7696 0.988422 55.2023 2.47356 57.635 3.95871C62.4675 7.03591 67.1447 10.1913 71.7563 13.5605C73.3642 14.7383 75.1276 15.8379 76.7355 17.0157C77.5843 17.6723 78.4331 18.329 78.9712 19.1422C80.146 20.4478 79.31 22.3144 78.6382 23.6467Z" fill="white"/>
<path d="M22.343 31.222C21.4485 28.1489 17.8868 27.7745 15.1804 29.3184C14.8368 29.5818 15.0731 30.0953 15.4166 29.8319C17.8124 28.4445 20.8839 28.7043 21.6319 31.3994C21.7785 31.7773 22.4895 31.5999 22.343 31.222Z" fill="white"/>
<path d="M23.7675 29.1493C22.6432 26.8244 20.0615 26.6792 17.5696 26.6695C17.1693 26.6904 17.0051 27.2249 17.528 27.2325C19.8974 27.2136 22.234 27.3016 23.1461 29.4623C23.2926 29.8402 23.914 29.5273 23.7675 29.1493Z" fill="white"/>
<path d="M25.3386 27.4546C23.9933 25.4217 22.0418 24.5073 19.5323 25.4099C19.0991 25.5378 19.18 26.1295 19.6132 26.0016C21.9345 25.2841 23.5184 26.1126 24.6843 27.8744C24.8637 28.1455 25.4851 27.8325 25.3386 27.4546ZM26.0608 25.1031C25.4834 23.1352 23.4334 22.5414 21.2762 22.7245C20.8759 22.7454 20.8014 23.4154 21.2346 23.2876C23.114 23.1541 24.8291 23.555 25.3497 25.2805C25.4634 25.7653 26.2073 25.481 26.0608 25.1031Z" fill="white"/>
<path d="M27.5003 23.8358C26.5794 22.1312 24.7745 21.5947 22.7399 21.8065C22.3395 21.8274 22.265 22.4974 22.6982 22.3695C24.455 22.2074 26.1374 22.7153 26.879 24.1488C27.0583 24.4198 27.6797 24.1068 27.5003 23.8358ZM28.2641 20.9212C27.1134 19.9649 25.4551 19.8064 24.0002 20.2682C23.567 20.396 23.6479 20.9877 24.0811 20.8599C25.3807 20.4763 26.6387 20.6558 27.6997 21.4766C28.0344 21.6695 28.566 21.2209 28.2641 20.9212ZM30.4414 18.108C29.2995 16.6955 27.0437 17.1992 25.3438 17.6037C24.9106 17.7316 24.9915 18.3233 25.4247 18.1954C26.8468 17.8405 28.702 17.3577 29.7871 18.5278C30.2115 18.8562 30.7432 18.4077 30.4414 18.108ZM33.0933 14.6038C31.5991 13.9108 29.6868 14.1512 28.2888 14.8554C27.8227 15.0901 28.2143 15.5253 28.525 15.3688C29.7677 14.7429 31.4021 14.5521 32.6513 15.1878C33.1414 15.3024 33.5505 14.8252 33.0933 14.6038ZM34.6338 11.298C33.6296 10.7196 32.4613 10.6756 31.3499 10.8741C30.9167 11.0019 30.9977 11.5936 31.4309 11.4658C32.387 11.3456 33.3998 11.4678 34.1917 11.882C34.5265 12.0748 34.9685 11.4908 34.6338 11.298ZM39.009 38.0966C37.8278 35.5293 33.9161 34.1566 31.9272 36.7848C31.6733 37.1837 32.2859 37.3269 32.5069 37.0349C34.2749 34.6987 37.4427 36.3557 38.3876 38.4096C38.5342 38.7875 39.033 38.4459 39.009 38.0966Z" fill="white"/>
<path d="M38.4909 34.6533C37.0888 32.378 34.2118 33.1947 32.0698 34.1833C31.6366 34.3111 31.9954 34.8532 32.306 34.6967C34.1045 33.9715 36.6139 33.0689 37.8367 35.0731C38.016 35.3442 38.6703 34.9243 38.4909 34.6533ZM40.154 31.3761C38.4171 28.9081 34.6978 30.3298 32.4901 31.5321C32.1466 31.7955 32.3828 32.3089 32.7263 32.0456C34.6233 30.9997 37.9423 29.599 39.4998 31.796C39.8345 31.9888 40.4559 31.6758 40.154 31.3761ZM40.4846 28.5895C39.5965 26.778 37.1287 27.1176 35.2165 27.358C34.8161 27.3789 34.7416 28.0489 35.1748 27.921C36.8091 27.7303 39.0649 27.2265 39.8633 28.9024C40.0098 29.2804 40.664 28.8605 40.4846 28.5895ZM41.2637 26.4804C40.6863 24.5125 38.1551 23.348 36.2494 24.85C35.9059 25.1134 36.2974 25.5486 36.6409 25.2852C38.2032 24.0466 40.089 25.1748 40.5526 26.6579C40.6992 27.0358 41.2877 26.8297 41.2637 26.4804ZM41.0826 21.512C39.9888 20.7981 38.722 21.0748 38.1486 22.0863C37.8948 22.4852 38.4746 22.7353 38.7284 22.3364C39.2361 21.5386 40.004 21.6035 40.7959 22.0178C40.9753 22.2888 41.4173 21.7048 41.0826 21.512ZM42.3694 18.6052C41.5294 17.4923 40.1729 17.6335 38.7836 17.8815C38.3504 18.0094 38.4641 18.4942 38.8645 18.4732C39.9759 18.2748 41.0873 18.0764 41.7151 19.025C42.0498 19.2178 42.6713 18.9049 42.3694 18.6052ZM42.5622 14.9844C41.4028 14.4842 40.2585 14.7895 39.4401 15.7438C39.2191 16.0358 39.6108 16.471 39.8318 16.179C40.4291 15.5167 41.1729 15.2324 42.1202 15.5684C42.6103 15.683 42.897 15.1772 42.5622 14.9844ZM42.9104 11.2853C41.8646 11.27 40.8757 11.497 40.0661 11.9952C39.7226 12.2585 39.9589 12.772 40.3024 12.5086C41.0771 12.1345 41.9506 11.9437 42.836 11.9553C43.2363 11.9343 43.3108 11.2644 42.9104 11.2853ZM42.1865 8.93948C41.3857 8.98142 40.585 9.02335 39.9308 9.44321C39.5873 9.70659 39.9788 10.1418 40.3223 9.8784C40.8212 9.53678 41.4666 9.57313 41.9895 9.5808C42.5452 9.48159 42.5869 8.91852 42.1865 8.93948ZM42.6484 5.72526C42.5587 5.58974 42.2809 5.63932 42.1256 5.71757C41.9702 5.79581 41.8149 5.87408 41.6924 5.84544C41.292 5.86641 41.1279 6.40082 41.6507 6.40849C42.0511 6.38753 42.329 6.33793 42.6725 6.07456C42.6725 6.07456 42.7381 5.86079 42.6484 5.72526ZM7.41388 26.8157C7.26734 26.4378 6.99827 26.0312 6.97424 25.6819C6.98304 25.2257 6.27195 25.4032 6.29598 25.7525C6.25436 26.3155 6.52347 26.7221 6.7597 27.2356C6.93907 27.5066 7.59326 27.0867 7.41388 26.8157ZM7.6877 23.7866C7.54115 23.4087 6.88692 23.8285 7.06629 24.0996C7.4819 24.8841 8.02001 25.6972 8.03525 26.5027C8.02645 26.9589 8.7375 26.7815 8.71346 26.4322C8.60854 25.4912 8.19299 24.7067 7.6877 23.7866ZM10.0811 24.117C9.99137 23.9815 9.90174 23.846 9.93457 23.7391C9.84489 23.6036 9.78801 23.3611 9.69832 23.2256C9.39643 22.9259 8.8647 23.3744 9.16659 23.6741C9.25627 23.8096 9.34599 23.9452 9.31316 24.052C9.40285 24.1876 9.45973 24.43 9.54942 24.5655C9.8513 24.8652 10.3829 24.4167 10.0811 24.117ZM11.8795 23.3918C11.6433 22.8783 11.2517 22.4431 10.8602 22.0079C10.5583 21.7082 10.0266 22.1568 10.3285 22.4564C10.7529 22.7848 11.022 23.1913 11.2582 23.7048C11.4048 24.0827 12.0589 23.6629 11.8795 23.3918ZM12.7899 20.8552C12.488 20.5555 11.9235 21.1109 12.2582 21.3037C12.3479 21.4392 12.4704 21.4679 12.7155 21.5252L12.9605 21.5825C13.0502 21.718 13.1727 21.7466 13.2952 21.7753C13.4506 21.697 13.6058 21.6187 13.549 21.3763C13.6475 21.0557 13.0918 21.1549 12.7899 20.8552ZM15.7895 20.0672C15.5773 19.903 15.4876 19.7675 15.2754 19.6033C14.9735 19.3036 14.4419 19.7521 14.7437 20.0518C14.9559 20.216 15.0456 20.3515 15.2578 20.5157C15.5597 20.8154 16.1242 20.26 15.7895 20.0672ZM18.7826 18.0174C18.4479 17.8246 18.1132 17.6318 17.901 17.4677C17.5991 17.168 17.0674 17.6165 17.3693 17.9162C17.6712 18.2159 18.0059 18.4087 18.4632 18.6301C18.6754 18.7943 19.1173 18.2102 18.7826 18.0174ZM21.2944 15.397L21.0166 15.4466C20.6163 15.4676 20.4521 16.002 20.975 16.0096L21.2528 15.96C21.6204 16.046 21.8173 15.4046 21.2944 15.397ZM24.4757 13.1621C24.3861 13.0266 24.1082 13.0762 23.9528 13.1544C23.7975 13.2327 23.6422 13.3109 23.5197 13.2823C23.1193 13.3033 22.9552 13.8377 23.4781 13.8454C23.8785 13.8244 24.1563 13.7748 24.4998 13.5114C24.6551 13.4332 24.5983 13.1907 24.4757 13.1621ZM49.502 36.4254C47.8917 36.9654 46.2814 37.5055 46.034 39.166C45.9027 39.5936 46.7363 39.4447 46.7123 39.0954C46.9837 37.7842 48.4058 37.4293 49.7054 37.0457C50.0161 36.8892 49.9352 36.2975 49.502 36.4254ZM48.7693 34.5357C47.9029 34.7914 47.0036 35.154 46.1941 35.6521C45.8506 35.9155 46.0868 36.4289 46.4303 36.1655C47.207 35.7743 47.9838 35.3831 48.8502 35.1274C49.2834 34.9996 49.2025 34.4079 48.7693 34.5357ZM48.7892 31.9055C47.8003 32.1326 46.8683 32.6021 46.3606 33.3999C46.1068 33.7988 46.7194 33.942 46.9404 33.6499C47.3824 33.0659 48.159 32.6747 48.9926 32.5258C49.3033 32.3693 49.2224 31.7776 48.7892 31.9055ZM48.1222 29.8021C47.5008 30.115 47.2141 30.6208 47.1725 31.1839C47.1637 31.6401 47.8748 31.4626 47.8508 31.1133C47.8267 30.764 48.0477 30.472 48.3584 30.3155C48.8244 30.0808 48.5882 29.5673 48.1222 29.8021ZM47.849 26.416C47.4486 26.437 47.1051 26.7003 46.8841 26.9923C46.7287 27.0706 46.6632 27.2844 46.8754 27.4485C46.9651 27.5841 47.2428 27.5345 47.3981 27.4562C47.5535 27.378 47.7417 27.1928 47.8971 27.1146C48.1749 27.065 48.3719 26.4237 47.849 26.416ZM48.1229 23.3869C47.7225 23.4079 47.3788 23.6712 47.1578 23.9633C47.0025 24.0415 46.9369 24.2553 47.1491 24.4195C47.2388 24.555 47.5166 24.5054 47.672 24.4271C47.8273 24.3489 48.0155 24.1637 48.1708 24.0855C48.4487 24.0359 48.5232 23.3659 48.1229 23.3869ZM47.5085 18.5464C47.5325 18.8957 47.0993 19.0235 46.9111 19.2087C46.7558 19.2869 46.6901 19.5007 46.9023 19.6648C46.992 19.8004 47.2699 19.7507 47.4252 19.6725C47.8015 19.3022 48.2677 19.0675 48.2764 18.6113C48.1627 18.1265 47.4844 18.1971 47.5085 18.5464ZM73.2289 190.899C71.1485 188.694 68.6589 186.966 66.1693 185.239C63.7695 183.647 61.3368 182.162 59.0923 180.491C56.2111 178.329 53.551 175.874 50.5474 173.682C46.9968 171.134 43.3806 168.799 39.83 166.251C36.7039 164.031 33.7331 161.733 30.2306 159.883C22.6458 155.933 15.9332 159.405 9.48977 163.283C9.17909 163.439 9.08062 163.76 9.1703 163.895C7.70657 164.813 6.45504 165.895 5.87294 167.363C5.19235 169.151 6.94689 170.707 8.15444 171.906C10.8714 174.603 9.7552 178.237 9.32609 181.345C8.91456 183.54 9.18128 185.664 10.3712 187.775C11.6509 190.022 13.8954 191.692 16.4266 192.857C16.5163 192.992 16.6388 193.021 16.7613 193.049C18.2555 193.742 19.8154 194.222 21.2856 194.565C25.0507 195.56 29.0456 195.806 33.1062 195.839L33.2287 195.868C35.8431 195.906 38.335 195.916 40.8269 195.926C46.0557 196.002 51.3503 195.865 56.6688 196.078C56.7585 196.213 57.126 196.299 57.3142 196.114C59.7733 196.231 62.3549 196.376 64.7811 196.599C67.3299 196.851 73.9129 198.505 75.0202 195.327C75.6023 193.859 74.1017 191.905 73.2289 190.899ZM51.4507 176.299C51.409 176.862 51.4002 177.318 51.4811 177.91C51.188 177.154 50.9277 176.292 50.4793 175.614C50.814 175.807 51.116 176.106 51.4507 176.299ZM8.40176 170.245C5.74163 167.791 8.45694 165.79 10.763 164.268C10.9512 164.082 11.1393 163.897 11.0825 163.655C12.5462 162.737 14.01 161.819 15.6859 161.065C18.1339 163.356 15.578 168.257 14.4554 170.63C13.521 172.817 12.3744 174.84 11.3503 176.892C11.4335 175.766 11.2389 174.689 10.9218 173.584C10.3925 172.315 9.39711 171.28 8.40176 170.245ZM10.9956 179.329C12.6018 175.81 14.6653 172.512 16.0264 168.935C16.9609 166.747 18.4205 162.85 16.4298 160.781C16.863 160.653 17.2065 160.39 17.6397 160.262C22.8094 161.814 18.3453 169.935 17.0018 172.599C15.1177 176.169 12.899 179.545 10.5905 182.786C10.6738 181.66 10.8795 180.562 10.9956 179.329ZM12.9922 189.075C11.5854 187.773 10.7564 186.077 10.6538 184.29C13.6581 180.066 16.5727 175.707 18.7522 171.176C20.1614 168.297 23.0215 161.978 18.9393 159.878C20.8274 159.288 22.7964 159.291 24.667 159.613C30.3812 163.24 27.6981 171.549 25.8205 176.379C23.8116 181.638 20.9602 187.501 16.8774 191.816C15.5385 191.045 14.11 190.138 12.9922 189.075ZM27.7812 194.365C24.4317 194.155 20.8131 193.538 17.7022 192.124C22.0389 187.409 25.1112 181.254 27.1289 175.54C28.7855 171.001 30.6413 164.103 26.7496 160.1C27.5744 160.407 28.5217 160.743 29.3137 161.158C31.2651 162.072 33.1181 163.307 34.8157 164.621C36.5655 169.612 37.6042 174.781 37.63 179.827C37.6469 185.33 36.2658 191.537 30.4853 194.539C29.5949 194.446 28.7045 194.352 27.7812 194.365ZM32.0868 194.455C36.8215 191.438 38.3075 186.172 38.6821 181.104C38.9999 175.794 38.0268 170.412 36.3099 165.313C36.7343 165.642 37.0691 165.835 37.4935 166.163C38.075 171.11 39.4571 176.016 39.8833 181.041C40.3182 185.611 40.2191 192.347 34.9463 194.551C33.9005 194.536 32.9772 194.549 32.0868 194.455ZM48.0184 194.743C44.2357 194.66 40.4201 194.685 36.5149 194.574C40.2847 192.133 40.8715 187.23 40.7954 183.202C40.7784 177.699 39.1271 172.387 38.4319 166.955C40.9215 168.683 43.4439 170.303 45.9335 172.031C46.9048 172.716 47.8761 173.402 48.8146 174.194C51.96 180.199 54.7245 190.01 48.0184 194.743ZM50.2324 194.802C49.832 194.823 49.587 194.766 49.1866 194.787C51.6897 192.622 52.821 189.794 52.9395 186.843C53.2214 189.773 52.8908 192.56 50.2652 194.695L50.2324 194.802ZM52.2014 194.804C51.9564 194.747 51.6785 194.797 51.4335 194.739C56.6038 189.876 52.4629 182.837 52.4219 176.985C55.058 179.09 57.6941 181.196 60.3959 183.087C61.9423 187.458 58.7739 192.216 54.8159 194.843C53.8926 194.856 53.0022 194.762 52.2014 194.804ZM56.1394 194.808C59.6971 192.203 62.3339 187.894 61.6123 183.83C61.7348 183.858 61.8245 183.994 61.947 184.023C62.1592 184.187 62.4939 184.38 62.7061 184.544C62.6926 188.436 60.3185 191.89 57.3406 194.745C56.9074 194.873 56.507 194.894 56.1394 194.808ZM64.1293 195.301C63.8843 195.244 63.6392 195.187 63.4839 195.265C61.8255 195.106 60.1345 195.055 58.4761 194.896C61.2987 192.119 63.4517 188.957 63.6774 185.229C64.7713 185.943 65.9876 186.686 67.0486 187.506C67.0855 190.379 66.9014 193.544 64.1293 195.301ZM67.8974 188.163L69.1706 189.148C69.4725 189.448 70.0194 189.805 70.6232 190.404C70.6777 192.364 70.7562 194.674 68.9161 195.962C67.6253 195.889 66.3674 195.71 65.1094 195.53C67.5469 193.58 67.8447 190.9 67.8974 188.163ZM71.9638 195.873C71.4081 195.972 70.7627 195.935 70.1173 195.899C71.2792 194.681 71.5593 192.914 71.5617 191.196C73.3074 193.208 74.9218 195.648 71.9638 195.873ZM188.226 244.015C182.312 242.747 176.143 243.596 170.065 242.863C163.742 242.072 158.01 239.357 152.458 236.914C147.24 234.663 141.99 232.519 136.674 230.589C131.692 228.852 126.636 227.785 121.219 227.893C115.68 227.973 110.317 230.041 105.779 232.417C103.572 233.62 101.454 234.957 99.3927 236.538C98.5503 237.143 97.8873 238.019 97.1346 238.759C95.8503 239.948 94.3713 240.061 92.6473 240.116C90.2451 240.242 88.8143 241.053 86.762 242.177C85.2086 242.959 83.6399 242.936 81.883 243.099C80.8044 243.19 79.5049 243.574 78.4832 243.908C73.0069 245.491 68.1168 248.587 62.1769 248.688C62.0544 248.659 62.0215 248.766 61.899 248.737C61.0983 248.779 60.3544 249.064 59.5777 249.455C59.2342 249.718 59.1029 250.146 59.5601 250.367C63.5439 252.788 68.9129 251.981 73.4219 252.691C75.66 253.1 77.3575 254.413 79.7598 254.287C80.683 254.274 81.615 253.804 82.3918 253.413C84.002 252.873 85.7085 253.73 87.113 254.288C88.7626 254.902 90.4778 255.303 92.1209 254.657C93.4861 254.059 94.7945 253.219 96.1662 253.884C96.2559 254.019 96.3456 254.155 96.501 254.077C96.501 254.077 96.6234 254.105 96.5905 254.212C97.3168 254.84 97.9863 255.226 99.0561 255.59C101.841 256.356 104.987 255.946 107.641 257.139C109.715 258.082 111.06 260.115 112.414 261.692C114.519 264.246 117.26 267.292 121.272 266.626C122.384 266.428 123.438 265.987 124.639 265.924C126.118 265.812 127.678 266.291 129.214 266.421C130.382 266.465 132.581 265.719 133.43 266.375C133.977 266.732 134.524 267.089 135.235 266.912C136.068 266.763 136.69 266.45 137.344 266.03C138.563 265.055 139.094 264.606 140.998 264.822C143.547 265.074 144.446 264.712 146.017 263.017C146.238 262.725 148.264 262.969 148.762 262.628C149.539 262.236 150.047 261.439 150.522 260.748C150.964 260.164 151.423 258.667 152.346 258.654C152.992 258.69 153.736 258.406 154.145 257.929L154.342 257.288C154.025 256.182 154.034 255.726 155.031 255.043C155.841 254.545 156.561 253.911 156.734 252.921C157.014 251.153 155.113 249.219 156.161 247.517C157.087 245.786 159.856 245.746 161.703 245.719C170.658 245.636 179.846 247.784 188.396 244.742C188.609 244.906 188.838 244.158 188.226 244.015ZM63.2948 249.751C63.4173 249.78 63.5726 249.701 63.5726 249.701L65.2398 249.404C66.0645 249.711 67.0358 250.396 67.3289 251.152C65.1477 250.986 62.9665 250.82 61.1376 249.934C61.6933 249.835 62.4941 249.793 63.2948 249.751ZM70.801 251.391C69.9105 251.297 68.9873 251.311 68.0969 251.217C67.9591 250.383 67.2656 249.648 66.384 249.098C67.2175 248.95 68.084 248.694 68.9504 248.438C70.1187 248.482 71.1885 248.847 72.0373 249.503C72.2495 249.668 73.3914 251.08 73.5948 251.7L70.801 251.391ZM78.7644 253.253C77.7515 253.13 76.7145 252.659 75.5222 252.266L74.4196 252.008C74.5268 251.231 73.654 250.225 73.2952 249.683C72.5121 248.812 71.5977 248.37 70.495 248.112C71.95 247.65 73.3152 247.053 74.6804 246.455C76.8616 246.622 78.5176 248.498 79.1607 250.252C79.3641 250.873 79.4186 252.833 78.7644 253.253ZM85.7261 252.818C85.4811 252.761 85.2688 252.596 84.9013 252.511C83.5536 252.196 82.4422 252.394 81.2323 252.913C80.6437 253.119 80.088 253.218 79.5651 253.211C79.9174 252.491 80.0576 251.607 80.0423 250.802C79.8981 248.706 78.2181 246.48 75.9232 245.829L76.2338 245.673C78.1548 244.976 80.0102 244.494 82.0777 244.175C84.0948 244.876 85.1293 247.065 85.5273 248.762C85.6979 249.489 85.746 250.188 85.9166 250.915C85.7853 251.343 85.8574 252.39 85.7261 252.818ZM89.7931 254.112C88.6248 254.068 87.4981 253.461 86.4283 253.097C86.7566 252.028 86.4571 250.01 86.3434 249.525C86.011 247.615 85.1646 245.24 83.2788 244.112C83.6792 244.091 84.1123 243.963 84.6352 243.971C85.7138 243.879 86.7683 243.439 87.6107 242.834L87.8558 242.891C92.3167 242.903 94.3836 248.999 95.6041 252.721C93.7007 252.506 91.9415 254.385 89.7931 254.112ZM106.377 255.698C103.379 254.768 99.9137 255.791 97.4329 253.607C97.1311 253.307 96.7963 253.115 96.5513 253.057C95.3309 249.335 93.485 242.947 88.6982 242.286C89.5077 241.788 90.4069 241.425 91.363 241.305C92.7195 241.164 94.0103 241.237 95.2771 240.96C102.332 243.64 103.925 250.428 107.112 255.87L106.377 255.698ZM169.065 245.264C165.193 245.046 159.948 244.164 156.531 245.885C155.288 246.511 154.338 247.893 154.59 249.212C154.785 250.288 155.29 251.208 155.484 252.285C155.826 253.739 154.338 254.308 153.307 255.098C152.808 255.44 152.555 255.839 152.636 256.43C152.92 257.642 152.74 257.371 151.596 257.677C151.008 257.883 150.688 258.496 150.434 258.894C150.148 259.4 149.861 259.906 149.485 260.276C148.723 261.473 148.29 261.601 146.656 261.792C145.822 261.94 145.544 261.99 144.98 262.545C143.785 263.87 142.282 263.633 140.591 263.581C139.545 263.566 139.022 263.558 138.09 264.028C136.97 264.683 135.922 266.385 134.371 265.45C133.946 265.121 133.277 264.736 132.721 264.835C131.209 265.054 129.943 265.331 128.284 265.172C127.149 265.022 126.013 264.871 124.845 264.827C123.465 264.618 122.084 264.41 120.737 264.095C119.879 263.895 117.975 263.679 117.626 262.681C117.658 262.574 117.536 262.545 117.413 262.517C114.705 259.363 120.551 256.147 122.833 254.275C125.868 251.662 126.993 247.572 128.901 244.352C131.792 239.644 136.64 237.111 142.7 238.757C145.118 239.437 147.771 240.63 149.182 242.449C150.593 244.268 149.503 246.534 150.914 248.353C151.183 248.759 151.838 248.339 151.691 247.961C150.19 246.007 151.346 243.527 149.6 241.516C148.032 239.927 145.971 238.769 143.665 238.181C138.128 236.543 133.24 237.92 129.746 242.029C127.921 244.123 126.888 246.631 125.643 248.975C124.332 251.532 122.973 253.391 120.569 255.235C118.009 257.157 114.141 259.919 116.971 263.101C117.387 263.885 118.334 264.221 119.314 264.45C120.384 264.815 121.397 264.937 122.533 265.088C121.977 265.187 121.388 265.393 120.833 265.492C116.264 266.258 113.331 260.417 111.038 258.048C110.223 257.284 109.374 256.628 108.37 256.049C108.37 256.049 108.402 255.942 108.28 255.914C104.725 250.386 103.354 243.306 96.3972 240.305C96.6751 240.256 96.8632 240.071 97.0514 239.885C99.0797 238.412 100.561 236.582 102.679 235.244C107.635 231.935 113.529 229.417 119.756 228.811C125.737 228.147 131.797 229.793 137.358 231.78C142.797 233.739 148.047 235.883 153.232 238.24C158.54 240.627 163.913 242.799 169.835 243.611C175.112 244.386 180.604 243.608 185.88 244.383C180.371 246.074 174.596 245.64 169.065 245.264ZM269.452 114.649C268.43 114.983 266.133 116.05 265.416 114.966C266.267 107.489 266.76 99.4709 265.521 91.9639C265.164 89.7039 264.285 87.4363 262.8 86.2872C264.793 86.6385 266.622 87.5243 268.238 88.2459C269.855 88.9675 271.537 89.4754 273.253 89.8763L273.312 88.4009C272.454 88.2004 271.597 87.9999 270.894 87.7212C268.02 86.8201 265.285 85.0352 262.025 84.9606C260.212 84.8803 258.267 85.2275 256.982 86.4165L256.917 86.6303C256.728 86.8154 256.573 86.8937 256.507 87.1075C254.96 89.1516 255.26 91.1691 255.494 93.4004C252.831 92.6634 249.206 90.785 246.99 92.4435C246.115 93.1554 245.885 93.9035 245.834 94.9228C245.832 96.6406 246.875 98.3738 243.878 97.4441C243.388 97.3295 242.644 97.6139 242.636 98.07C242.603 98.1769 242.692 98.3124 242.66 98.4193L242.528 98.8469C241.988 99.7515 240.183 99.2151 239.391 98.8008C238.934 98.5794 238.157 98.9706 238.148 99.4268C237.641 100.225 237.019 100.538 236.194 100.23C235.549 100.194 234.952 100.856 235.221 101.263C235.122 101.583 235.146 101.933 235.636 102.047C237.474 102.477 238.732 102.656 238.942 104.538C238.966 104.888 239.423 105.109 239.856 104.981C240.568 104.804 241.311 104.519 242.022 104.342C243.878 103.859 244.039 105.043 244.136 106.44C244.216 107.032 244.919 107.31 245.45 106.862C245.827 106.491 246.17 106.228 246.547 105.858C248.142 104.512 248.881 107.664 248.905 108.013C249.312 109.254 249.408 110.651 249.692 111.863C249.749 112.105 250.051 112.405 250.329 112.355C252.797 112.016 254.882 110.785 256.877 109.418C257.997 108.764 258.905 107.945 260.059 107.183C261.71 106.08 262.482 109.125 262.865 110.016C263.663 111.692 263.825 112.876 263.668 114.672C263.683 115.477 263.919 115.991 264.523 116.59C265.73 117.789 268.583 116.623 269.793 116.104C270.97 115.691 272.147 115.279 273.292 114.974L273.285 113.712C272.051 113.882 270.784 114.159 269.452 114.649ZM239.574 102.051C239.183 101.616 238.758 101.288 238.056 101.009C238.522 100.774 238.988 100.54 239.242 100.141C239.568 100.79 239.649 101.381 239.574 102.051ZM244.051 102.869C243.136 102.426 241.714 102.781 240.537 103.193C240.555 102.28 240.728 101.29 240.5 100.32C241.881 100.528 243.18 100.145 243.721 99.2401C244.259 100.053 244.289 101.664 244.296 102.926L244.051 102.869ZM250.449 107.687C250.222 106.717 249.872 105.719 249.211 104.877C249.474 104.022 249.336 103.188 249.354 102.275C249.396 101.712 248.317 101.804 248.275 102.367C248.234 102.93 248.315 103.522 248.273 104.085C247.391 103.535 246.271 104.19 245.273 104.873L245.306 104.766C245.339 104.659 245.372 104.552 245.282 104.417C244.932 103.418 245.329 100.418 244.587 98.9844C245.355 99.0493 246.066 98.8719 246.442 98.5017C247.366 98.4884 248.19 98.7957 248.295 99.7367C248.376 100.328 249.398 99.9945 249.317 99.4028C249.155 98.2194 248.151 97.641 246.983 97.597C247.081 97.2763 247.213 96.8488 247.099 96.364C247.003 94.9668 246.841 93.7834 247.651 93.2853C250.101 93.8581 250.667 98 251.065 99.6969C251.52 101.636 251.24 103.404 250.649 105.328C250.664 106.133 250.557 106.91 250.449 107.687ZM264.882 110.717C264.589 109.961 264.296 109.205 263.913 108.314C263.53 107.422 263.001 106.153 261.997 105.575C261.647 104.576 261.665 103.664 261.593 102.616C261.634 102.053 260.555 102.144 260.514 102.708C260.496 103.62 260.601 104.561 260.739 105.395C259.783 105.515 258.908 106.227 258.221 106.754C256.16 108.334 253.755 110.178 250.944 110.781C250.976 110.674 250.887 110.538 250.92 110.431C251.576 108.294 252.02 105.992 252.432 103.797C252.712 102.029 252.559 100.39 252.161 98.693C251.853 97.1316 251.195 94.572 249.652 93.1804L250.02 93.2664C252.013 93.6177 253.809 94.6104 255.835 94.8548C255.957 94.8835 256.235 94.8339 256.391 94.7556C257.003 94.8988 257.493 95.0133 258.073 95.2634C259.265 95.6567 259.869 96.2561 260.064 97.3326C260.145 97.9244 261.166 97.5904 261.085 96.9987C260.858 96.0291 260.443 95.2446 259.438 94.6661C258.646 94.2519 257.789 94.0514 256.931 93.8509C256.739 91.0566 255.91 87.7697 259.474 86.4262C259.752 86.3766 260.063 86.2201 260.341 86.1705C263.878 86.1956 264.762 91.4427 265.011 94.4795C265.338 99.8258 265.233 105.3 264.882 110.717ZM263.349 263.638C262.981 263.552 262.662 264.165 263.185 264.173C266.191 264.646 268.525 266.452 271.465 267.14C272.078 267.283 272.69 267.426 273.336 267.462L273.377 266.899C272.397 266.67 271.507 266.576 270.682 266.269C268.175 265.454 265.987 264.026 263.349 263.638Z" fill="white"/>
<path d="M270.826 268.365C265.737 267.404 261.001 265.724 257.092 262.634C253.272 259.679 249.741 254.5 249.674 250.017C250.074 249.996 250.442 250.082 250.842 250.061C250.49 250.78 250.383 251.557 250.987 252.157C251.288 252.456 251.698 251.979 251.518 251.708C251.004 251.244 251.078 250.574 251.52 249.99C253.767 249.943 256.023 249.439 258.099 248.664C258.091 249.12 258.36 249.527 258.751 249.962C259.053 250.262 259.462 249.785 259.283 249.514C258.981 249.214 258.802 248.943 258.778 248.594L258.843 248.38L259.775 247.91C259.773 249.628 262.322 249.88 264.013 249.932C267.271 250.002 270.489 249.287 273.313 247.867L273.355 247.304C271.091 248.264 268.859 249.117 266.146 249.4C264.544 249.483 260.23 249.85 260.519 247.626C260.83 247.47 261.141 247.313 261.329 247.128C261.386 247.37 261.353 247.477 261.532 247.748C261.679 248.126 262.333 247.706 262.153 247.435L261.983 246.708C263.324 245.761 264.486 244.544 265.436 243.162C266.171 243.334 266.939 243.399 267.683 243.114C268.116 242.986 268.002 242.502 267.569 242.629C266.98 242.836 266.335 242.799 265.722 242.656L265.788 242.442C266.779 240.497 267.444 237.904 267.154 235.43C268.167 235.552 268.976 235.054 269.484 234.256C269.705 233.964 269.125 233.714 268.904 234.006C268.585 234.619 268.053 235.067 267.195 234.867L267.073 234.838C266.627 232.443 265.314 230.303 262.407 229.509C257.572 228.149 249.284 230.336 249.824 235.847C250.172 238.563 252.596 240.504 255.831 240.229C258.234 240.104 259.936 237.981 259.636 235.964C259.247 233.811 255.44 233.379 254.147 235.024C253.042 236.484 256.374 237.607 257.536 236.389C257.691 236.311 257.757 236.097 257.545 235.933C257.153 235.498 256.908 235.441 256.296 235.297C255.928 235.211 255.519 235.689 255.887 235.774C256.254 235.86 256.499 235.918 256.834 236.11C255.526 236.95 253.559 235.23 255.725 234.591C257.58 234.108 259.131 235.044 259.006 236.733C258.903 240.489 252.948 239.784 251.145 237.53C249.253 235.14 251.129 232.027 253.647 230.669C254.868 230.044 256.219 229.638 257.622 229.474C259.026 229.31 260.452 229.392 261.818 229.715C267.699 231.09 267.044 237.924 265.217 241.736C264.48 243.282 263.285 244.607 261.878 245.767C261.755 245.738 261.511 245.681 261.445 245.895L261.379 246.109C257.981 248.337 253.778 249.428 249.536 249.183C249.447 249.047 249.324 249.018 249.201 248.99C246.219 248.866 245.31 244.987 244.732 243.019C244.164 240.595 243.939 237.907 244.694 235.449C246.836 228.045 257.887 224.557 265.722 225.128C267.135 225.23 268.638 225.467 270.108 225.81C271.528 227.173 271.173 229.61 270.526 231.292C270.394 231.72 271.04 231.756 271.138 231.435C271.753 229.861 272.009 227.744 271.178 226.175C271.913 226.347 272.616 226.625 273.318 226.904L273.335 225.992C271.073 225.234 268.623 224.661 266.197 224.438C259.318 223.746 250.654 226.303 246.374 231.26C243.388 234.571 243.096 238.513 243.818 242.576C244.198 245.185 245.222 249.549 248.873 250.059C248.842 254.863 252.316 259.799 256.07 262.968C260.003 266.408 265.263 268.095 270.719 269.142C271.576 269.342 272.589 269.464 273.569 269.693L273.587 268.781C272.574 268.659 271.716 268.458 270.826 268.365Z" fill="white"/>
<path d="M250.895 247.324L249.972 247.337C249.572 247.358 249.53 247.921 249.93 247.9L250.854 247.887C251.254 247.866 251.418 247.331 250.895 247.324ZM270.872 246.838C271.526 246.418 272.36 246.27 273.071 246.092C273.504 245.964 273.39 245.479 272.957 245.607C272.091 245.863 271.257 246.012 270.603 246.432C270.17 246.56 270.406 247.073 270.872 246.838ZM269.58 242.068C269.179 242.089 269.138 242.652 269.538 242.631C270.894 242.49 272.194 242.107 273.404 241.588L273.446 241.025C272.236 241.544 270.936 241.927 269.58 242.068ZM253.94 255.367C253.793 254.989 253.139 255.409 253.318 255.68C254.443 258.005 256.499 259.86 258.776 261.424C259.111 261.616 259.643 261.168 259.308 260.975C257.121 259.547 255.064 257.692 253.94 255.367ZM262.923 252.197C263.658 252.369 264.361 252.648 264.973 252.791C265.341 252.877 265.627 252.371 265.137 252.257C264.402 252.085 263.7 251.806 263.087 251.663C262.753 251.47 262.556 252.111 262.923 252.197ZM270.537 253.061C270.136 253.082 270.095 253.645 270.495 253.624L273.387 253.612L273.429 253.049C272.383 253.034 271.46 253.047 270.537 253.061Z" fill="white"/>
<path d="M288.635 109.052C293.663 106.791 299.892 104.466 302.505 99.8075C303.332 98.397 307.575 90.5678 302.681 90.6839C301.88 90.7258 301.169 90.9033 300.458 91.0807C298.725 91.5922 296.935 91.8611 295.089 91.8877C290.718 92.0115 286.34 90.8736 282.142 90.0067C279.168 89.4262 276.285 88.9813 273.377 88.187L273.318 89.6624C277.328 90.7144 281.625 91.2607 285.578 92.0703C290.545 93.0021 295.822 93.7774 300.62 92.2642C305.262 90.8292 302.312 97.0131 301.453 98.5305C300.052 100.953 298.114 102.561 295.562 104.027C291.237 106.567 286.275 108.615 281.501 110.477C278.859 111.526 276.161 112.463 273.417 113.285C273.417 113.285 273.294 113.256 273.261 113.363L273.268 114.625C275.278 114.063 277.166 113.474 279.087 112.777C282.431 111.726 285.472 110.375 288.635 109.052ZM292.354 268.815C292.477 268.844 292.632 268.765 292.787 268.687C297.516 264.408 296.79 257.365 295.817 251.982C294.616 245.63 292.328 239.825 287.409 234.895C283.696 231.163 278.741 228.057 273.392 226.234L273.375 227.146C276.094 228.126 278.715 229.426 281.082 231.125C281.112 232.736 280.963 234.076 280.014 235.457C279.793 235.749 280.373 235.999 280.594 235.707C281.51 234.433 281.815 233.014 281.874 231.539C283.18 232.417 284.331 233.373 285.359 234.301C285.004 236.739 283.613 238.704 281.943 240.72C281.722 241.012 282.302 241.262 282.523 240.97C284.159 239.061 285.518 237.202 285.963 234.9C286.052 235.036 286.264 235.2 286.354 235.336L286.321 235.443C286.391 238.208 285.268 240.581 282.953 242.56C280.86 244.247 278.162 245.335 275.709 246.48C274.933 246.871 274.189 247.155 273.412 247.547L273.37 248.11L273.836 247.875C277.066 246.339 280.475 245.074 283.223 242.967C284.362 242.103 285.272 241.034 285.89 239.834C286.508 238.633 286.82 237.33 286.803 236.013L287.798 237.048C289.846 239.359 291.427 241.906 292.543 244.687L292.477 244.901C292.435 245.464 292.238 246.105 292.319 246.697C292.343 247.046 293.021 246.976 292.997 246.626C292.94 246.384 293.039 246.063 293.105 245.849C294.211 249.087 294.885 252.452 295.313 255.76C295.709 259.174 295.663 263.173 293.787 266.286C290.188 269.454 284.111 268.721 279.569 268.117C277.543 267.873 275.362 267.707 273.368 267.355L273.327 267.918C275.81 268.384 278.514 268.558 281.03 268.917C284.714 269.32 288.954 269.624 292.216 267.981C290.383 270.531 285.465 270.297 282.483 270.173C279.345 270.127 276.339 269.653 273.211 269.151L273.193 270.064C276.567 270.623 280.128 270.998 283.511 271.101C286.379 270.74 290.227 270.609 292.354 268.815Z" fill="white"/>
<path d="M276.668 244.642C277.51 244.037 278.532 243.703 279.464 243.234C279.897 243.106 279.538 242.564 279.228 242.72C278.296 243.19 277.274 243.524 276.432 244.128C276.088 244.392 276.357 244.798 276.668 244.642ZM278.18 238.007C278.401 237.715 278.01 237.28 277.756 237.679C276.561 239.004 275.032 240.135 273.323 240.996L273.281 241.559C275.235 240.756 276.83 239.41 278.18 238.007ZM284.298 251.008C280.824 252.487 277.155 252.89 273.339 252.914L273.298 253.477C277.146 253.346 280.938 252.972 284.567 251.415C284.968 251.394 284.731 250.88 284.298 251.008ZM288.753 249.758C289.742 249.531 290.674 249.062 291.573 248.699C292.006 248.571 291.647 248.029 291.337 248.186C290.437 248.548 289.538 248.911 288.672 249.167C288.239 249.294 288.352 249.779 288.753 249.758Z" fill="white"/>
<path d="M221.268 314.288C221.653 313.462 221.706 310.725 218.341 309.709C218.768 308.319 216.639 305.416 214.515 305.492C215.073 303.675 211.899 300.757 209.3 301.524C208.838 298.323 205.423 298.326 204.312 298.525C203.962 297.527 200.599 294.793 196.423 295.993C194.088 294.187 189.807 294.447 187.812 295.813C186.595 295.071 183.075 294.133 181.029 296.519C179.625 295.961 174.958 297.047 175.183 299.735C173.868 299.313 172.446 299.668 171.203 300.294C169.25 301.097 169.28 302.708 169.066 304.262C167.652 304.16 166.165 304.729 165.281 305.897C164.331 307.279 164.427 308.676 165.201 310.003C163.567 310.193 162.202 310.791 161.285 312.066C160.81 312.757 160.858 313.455 160.873 314.261C160.897 314.61 161.289 315.045 161.436 315.423C161.761 316.072 160.175 316.961 159.856 317.574C158.488 319.889 159.164 321.537 161.63 322.915C164.764 324.679 169.282 324.933 172.713 325.735L174.305 326.107C175.618 328.247 174.397 330.94 176.298 332.874C177.114 333.637 178.682 333.66 179.728 333.676C182.22 333.685 184.745 333.588 187.237 333.598C187.416 333.869 187.628 334.033 187.685 334.276C188.346 335.117 189.039 335.852 190.044 336.431C191.872 337.316 194.161 336.706 195.568 335.545C196.41 334.94 196.951 334.036 197.369 333.102C199.215 333.076 200.939 333.021 202.72 333.208C204.223 333.445 205.693 333.788 207.327 333.597C207.45 333.626 207.572 333.655 207.728 333.577C209.06 333.086 209.356 332.124 209.439 330.998C209.597 329.202 209.509 327.349 209.822 325.474C211.522 325.07 213.312 324.801 215.224 324.56C217.937 324.278 221.597 324.332 223.691 322.645C223.691 322.645 224.068 322.274 224.133 322.061C225.877 319.375 223.007 315.038 221.268 314.288ZM217.09 310.791C218.332 310.165 221.996 313.198 219.544 314.343C217.402 315.332 215.538 316.271 213.575 317.53C211.457 318.868 208.948 319.771 206.74 320.973C204.688 322.097 202.382 323.62 200.533 325.365L200.598 325.151C202.056 322.971 204.06 321.149 206.031 319.433L211.381 314.841C213.344 313.581 215.07 311.808 217.09 310.791ZM216.641 310.114C215.21 310.925 213.991 311.9 212.74 312.982C210.425 314.961 207.865 316.883 205.517 318.969C203.701 320.607 201.852 322.351 200.338 324.288C199.896 324.872 199.454 325.456 199.135 326.069C199.726 324.145 200.439 322.25 201.61 320.576C203.387 317.784 205.564 314.97 207.92 312.428C209.679 310.548 211.83 309.103 213.745 307.145C214.808 306.248 218.293 309.01 216.641 310.114ZM203.697 300.099C204.27 299.088 209.039 300.661 207.803 302.549C203.876 306.786 202.153 311.538 200.389 316.854C199.315 319.925 197.873 322.91 196.553 325.924C196.234 326.536 196.037 327.178 195.807 327.926C195.84 327.819 195.873 327.712 195.783 327.577C196.77 322.652 198.125 317.814 199.725 313.033C201.07 308.65 201.649 304.203 203.697 300.099ZM181.992 297.66C183.025 295.152 186.823 296.04 186.895 297.088C187.021 300.096 187.817 303.49 188.222 306.449C188.642 310.213 188.383 314.047 188.402 317.832C188.382 320.462 188.607 323.15 188.988 325.759C188.153 321.21 186.95 316.576 185.714 312.049C185.023 309.596 184.332 307.143 183.796 304.612C183.44 302.352 181.917 298.33 181.992 297.66ZM180.537 298.122C180.961 298.451 182.059 302.144 182.759 304.14C183.507 306.836 184.1 309.609 184.848 312.304C185.823 315.969 186.709 319.498 187.529 323.241C187.056 322.214 186.551 321.294 186.079 320.267C184.359 316.887 182.64 313.507 181.354 309.998C180.002 306.704 178.184 303.644 176.399 300.477C175.861 299.664 178.08 296.288 180.537 298.122ZM169.472 305.502C169.962 305.617 173.872 308.707 175.683 310.506C176.678 311.54 177.208 312.809 178.048 313.922C178.888 315.035 179.949 315.856 180.944 316.891C183.27 319.153 184.311 322.604 185.393 325.491C185.597 326.112 185.8 326.732 186.126 327.381C185.677 326.704 185.196 326.133 184.715 325.562C182.79 323.279 180.154 321.174 177.73 319.232C174.155 316.335 168.82 310.62 167.033 309.171C165.589 307.458 165.985 304.458 169.472 305.502ZM165.952 310.98C168.1 311.253 173.681 317.026 176.888 319.837C178.52 321.364 180.184 322.785 181.849 324.205C180.666 323.355 179.482 322.506 178.454 321.578C176.242 319.801 174.144 318.509 171.556 317.102C168.723 315.638 164.361 315.305 163.046 314.883C162.221 314.576 160.887 310.369 165.952 310.98ZM176.709 330.679C176.213 329.302 176.395 327.856 176.143 326.537C178.65 327.352 181.214 328.41 183.279 329.809C184.373 330.523 185.312 331.315 186.217 332.214C182.982 332.489 177.556 333.053 176.709 330.679ZM178.799 326.012C176.113 324.926 173.295 324.267 170.444 323.715C167.103 323.049 159.302 322.371 161.048 317.967C161.368 317.355 161.678 317.198 162.356 317.128C164.857 316.681 167.717 316.777 170.427 318.212C173.505 319.734 177.008 321.584 179.521 323.661C181.521 325.274 183.741 326.595 185.52 328.5C186.213 329.234 186.644 330.824 186.824 331.096C184.923 329.162 181.273 326.934 178.799 326.012ZM182.235 316.963C181.574 316.121 180.636 315.329 179.942 314.594C178.612 313.367 177.871 311.933 176.974 310.578C175.416 308.381 171.441 305.504 170.691 304.527C169.044 302.195 173.534 299.12 175.614 301.325C177.139 303.629 179.542 308.2 181.008 311.979C182.417 315.516 184.258 318.925 185.978 322.306C187.607 325.551 188.469 328.731 189.232 332.231C189.322 332.367 189.379 332.609 189.313 332.823C188.138 331.517 185.529 321.628 182.235 316.963ZM191.86 334.793C190.571 333.003 190.641 329.353 190.342 327.336C189.757 323.597 189.51 319.824 189.606 316.051C189.634 312.965 189.753 310.014 189.504 306.977C189.198 303.698 188.614 300.469 188.431 297.218C188.49 295.743 195.933 295.879 195.841 297.461C195.477 300.355 195.236 303.277 194.595 306.22C193.855 309.484 193.271 312.669 193.143 316.076C192.983 319.59 192.578 323.047 192.296 326.532C191.998 329.212 192.525 332.199 191.86 334.793ZM194.77 327.454C194.711 328.93 194.161 330.291 193.824 331.816C193.651 332.806 193.682 334.417 192.684 335.1C193.374 332.856 193.05 330.489 193.061 328.315C193.099 324.772 193.626 321.344 193.909 317.859C194.441 310.996 195.954 304.361 196.976 297.612C197.355 295.524 203.684 297.576 202.905 299.685C200.668 303.974 200.18 308.557 198.801 313.046C197.324 317.856 195.88 322.559 194.893 327.483C194.836 327.241 194.803 327.347 194.77 327.454ZM195.244 333.179C195.474 332.43 195.614 331.547 195.754 330.663C196.461 327.506 198.026 324.55 199.345 321.536C200.665 318.522 201.617 315.422 202.814 312.38C204.142 308.91 206.017 305.797 208.717 302.991C210.533 301.354 213.813 305.214 213.117 306.197C212.299 307.151 211.268 307.941 210.237 308.731C208.986 309.813 207.791 311.138 206.785 312.277C204.772 314.556 203.093 317.028 201.326 319.364C199.746 321.515 198.868 323.945 198.113 326.403C197.424 328.648 196.758 331.241 195.244 333.179ZM208.15 329.208C208.076 329.877 208.531 331.817 207.632 332.179C205.997 332.37 204.405 331.998 202.779 331.732C201.399 331.524 199.797 331.608 198.351 331.614C199.423 330.261 200.765 329.314 202.351 328.425C204.436 327.194 206.39 326.39 208.433 325.722C208.227 326.82 208.267 327.975 208.15 329.208ZM222.941 321.667C221.967 322.7 219.908 322.562 218.397 322.782L212.66 323.503C209.792 323.863 207.193 324.63 204.585 325.854C202.443 326.842 200.358 328.073 198.73 329.526C198.828 329.205 199.049 328.913 199.148 328.592C201.235 325.643 204.915 323.067 208.088 321.288C209.829 320.321 211.75 319.624 213.492 318.657C215.7 317.454 217.662 316.195 220.049 315.263C222.06 314.702 224.022 319.858 222.941 321.667Z" fill="white"/>
<path d="M80.3842 311.254C79.8877 309.878 78.1573 308.672 76.9738 307.822C75.0312 306.452 73.1782 305.216 71.2355 303.846C66.9259 300.776 62.4281 297.892 57.9303 295.008C55.4079 293.387 52.8438 292.329 49.584 292.255C46.4467 292.209 43.4711 293.346 40.4715 294.134C37.3494 294.894 34.2931 295.439 31.1622 296.655C27.876 297.949 24.826 299.756 21.7191 301.321C19.4218 302.388 17.0348 303.319 14.6478 304.25L14.5253 304.222C14.4028 304.193 14.37 304.3 14.2475 304.271L14.2146 304.378C12.1383 305.153 9.93945 305.899 7.92 306.916C5.00133 308.296 -0.05925 310.664 0.0585505 314.128C0.11541 314.371 0.205093 314.506 0.450121 314.564C0.620699 315.291 0.913874 316.047 1.39514 316.618C1.78671 317.053 2.30075 317.517 2.84766 317.874C4.12087 318.859 4.71584 319.914 5.21234 321.29C5.9691 323.529 7.19834 326.795 10.688 326.122C13.7444 325.576 16.5909 323.148 19.3736 325.632C21.4627 327.38 21.0249 330.944 21.3484 333.311C21.6808 335.221 22.2493 337.645 24.5443 338.297C26.5942 338.89 28.3534 337.01 29.5153 335.793C30.3008 334.945 30.9967 333.962 31.815 333.008C32.4452 332.239 33.3291 331.071 34.4077 330.979C36.8756 330.64 37.5291 336.635 38.7039 337.941C40.4167 340.059 44.0136 338.609 45.4293 336.992C46.4358 335.853 46.985 334.492 47.9018 333.217C49.2935 331.251 51.5227 332.116 52.9425 333.479C54.6641 335.142 57.1778 337.219 59.7377 335.297C60.9564 334.321 61.2935 332.796 62.9366 332.149C64.8247 331.56 66.435 331.02 68.1197 329.81C71.4892 327.39 73.5527 324.092 75.9508 320.986C78.1608 318.066 81.4821 314.948 80.3842 311.254ZM78.6948 315.9C77.802 317.524 76.4191 319.034 75.1588 320.572C73.8656 322.217 72.6622 323.998 71.369 325.643C70.0758 327.289 68.448 328.741 66.3957 329.865C64.8095 330.754 62.9302 330.888 61.5889 331.834C60.0924 332.859 59.7465 334.841 57.6221 334.917C55.7428 335.05 54.4871 333.153 53.3692 332.09C51.4026 330.37 48.7794 330.787 47.1756 332.589C46.1691 333.729 45.7423 335.118 44.7029 336.364C43.8846 337.319 42.7075 337.731 41.351 337.872C40.1499 337.935 39.3996 336.958 38.984 336.173C38.1857 334.497 37.8316 330.52 35.226 330.025C33.3883 329.595 31.9069 331.426 30.9004 332.565C29.6729 333.997 27.9203 337.138 25.6406 337.293C22.5273 337.596 22.3461 332.628 22.1034 330.852C21.8367 328.728 21.7582 326.418 20.1591 324.784C18.3477 322.986 15.88 323.326 13.5258 324.15C12.3487 324.562 11.2612 325.11 10.0601 325.173C7.65786 325.299 6.7305 322.333 6.26683 320.85C5.78808 319.396 4.87992 318.077 3.63318 317.026C2.05808 315.742 1.37344 314.55 1.31894 312.59C1.3846 312.376 1.57271 312.191 1.63836 311.978C1.63601 313.695 2.65541 315.079 4.17365 316.122C4.50836 316.314 5.04005 315.866 4.70534 315.673C3.06458 314.602 2.20053 313.14 2.35823 311.344C2.39106 311.237 2.39103 311.237 2.26851 311.208C2.83302 310.653 3.52006 310.126 4.17425 309.706C3.43681 311.252 3.34475 312.835 4.57633 314.383C4.87822 314.682 5.49963 314.369 5.19774 314.07C3.87647 312.386 4.09099 310.833 5.13912 309.13L5.17198 309.023C5.79335 308.71 6.25936 308.475 6.75821 308.134C6.14328 309.708 5.89588 311.369 6.26107 313.173C6.40761 313.551 6.99614 313.345 6.9721 312.995C6.60692 311.192 7.00963 309.453 7.65739 307.771C8.27876 307.458 8.86729 307.252 9.48866 306.939C8.1955 308.584 7.76001 310.43 8.45992 312.427C8.60646 312.805 9.26065 312.385 9.08128 312.114C8.25886 310.088 9.16038 308.008 10.6986 306.42L12.4642 305.802C11.6459 306.756 10.9501 307.739 10.6787 309.05C10.5474 309.478 11.1928 309.514 11.2912 309.193C11.6283 307.668 12.6348 306.529 13.7638 305.418L15.6848 304.722C14.4542 305.645 13.6079 306.897 13.2779 308.283C13.1466 308.711 13.9801 308.562 13.9561 308.213C14.2035 306.552 15.6104 305.392 17.1069 304.367C17.1398 304.26 17.2622 304.289 17.2951 304.182C18.0389 303.897 18.7828 303.613 19.5596 303.222C18.063 304.247 16.4439 305.243 15.7065 306.789C15.4526 307.188 16.0324 307.438 16.2862 307.039C17.2447 305.201 19.2313 304.291 20.9488 302.974C21.137 302.789 21.0473 302.653 20.9576 302.518C23.5656 301.294 26.1167 299.829 28.7247 298.605C30.8995 297.51 33.2865 296.579 35.6976 295.997C38.1414 295.308 40.7318 294.997 43.1757 294.308C45.3088 293.776 47.442 293.243 49.8114 293.224C52.8262 293.242 55.2589 294.727 57.6916 296.212C62.5242 299.289 67.2014 302.445 71.8129 305.814C73.4208 306.992 75.1841 308.091 76.792 309.269C77.6408 309.926 78.4896 310.582 79.0278 311.395C80.08 312.672 79.3666 314.568 78.6948 315.9Z" fill="white"/>
<path d="M22.3994 323.475C21.5049 320.402 17.9432 320.028 15.2367 321.572C14.8932 321.835 15.1294 322.349 15.473 322.085C17.8687 320.698 20.9404 320.958 21.6883 323.653C21.8349 324.031 22.4235 323.825 22.3994 323.475Z" fill="white"/>
<path d="M23.824 321.402C22.6997 319.077 20.1181 318.932 17.6262 318.923C17.2258 318.943 17.0617 319.478 17.5846 319.486C19.954 319.467 22.2906 319.555 23.2027 321.715C23.3492 322.093 23.9706 321.78 23.824 321.402Z" fill="white"/>
<path d="M25.2725 319.679C23.9272 317.646 21.9758 316.732 19.4663 317.634C19.0331 317.762 19.1139 318.354 19.5471 318.226C21.8685 317.508 23.4524 318.337 24.6184 320.099C24.9203 320.399 25.5744 319.979 25.2725 319.679ZM26.1173 317.356C25.5399 315.388 23.49 314.794 21.3328 314.977C20.9324 314.998 20.8579 315.668 21.2911 315.541C23.1704 315.407 24.8857 315.808 25.4062 317.534C25.5199 318.018 26.1413 317.705 26.1173 317.356Z" fill="white"/>
<path d="M27.5898 315.982C26.6689 314.277 24.8639 313.741 22.8292 313.953C22.4288 313.974 22.3545 314.644 22.7877 314.516C24.5445 314.354 26.2268 314.862 26.9683 316.295C27.1149 316.673 27.7364 316.36 27.5898 315.982ZM28.1983 313.146C27.0476 312.189 25.3892 312.031 23.9342 312.493C23.501 312.62 23.5819 313.212 24.0151 313.084C25.3147 312.701 26.5727 312.88 27.6337 313.701C27.9685 313.894 28.533 313.339 28.1983 313.146ZM30.4979 310.361C29.356 308.949 27.1003 309.452 25.4003 309.857C24.9671 309.985 25.048 310.576 25.4812 310.449C26.9033 310.094 28.7587 309.611 29.8437 310.781C30.1456 311.081 30.6773 310.632 30.4979 310.361ZM33.1499 306.857C31.6557 306.164 29.7435 306.404 28.3454 307.109C27.8794 307.343 28.2709 307.778 28.5816 307.622C29.8244 306.996 31.4587 306.805 32.7079 307.441C33.0754 307.527 33.5174 306.943 33.1499 306.857ZM34.5679 303.523C33.5637 302.944 32.3955 302.9 31.2841 303.099C30.8509 303.226 30.9318 303.818 31.365 303.69C32.3211 303.57 33.334 303.692 34.1259 304.107C34.5832 304.328 35.0251 303.744 34.5679 303.523ZM38.9431 330.321C37.7619 327.754 33.8503 326.381 31.8613 329.009C31.6075 329.408 32.22 329.551 32.441 329.259C34.209 326.923 37.3768 328.58 38.3217 330.634C38.4683 331.012 39.0896 330.699 38.9431 330.321Z" fill="white"/>
<path d="M38.4248 326.878C37.0226 324.602 34.1456 325.419 32.0037 326.408C31.5705 326.536 31.9292 327.078 32.2398 326.921C34.0383 326.196 36.5478 325.293 37.7706 327.298C38.1053 327.49 38.6042 327.149 38.4248 326.878ZM40.2104 323.629C38.4735 321.161 34.7541 322.583 32.5464 323.785C32.2029 324.049 32.4392 324.562 32.7827 324.299C34.6796 323.253 37.9987 321.852 39.5562 324.049C39.7684 324.213 40.3897 323.9 40.2104 323.629ZM40.4184 320.814C39.5304 319.002 37.0626 319.342 35.1504 319.582C34.75 319.603 34.6756 320.273 35.1088 320.145C36.7431 319.955 38.9988 319.451 39.7972 321.127C39.9438 321.505 40.5978 321.085 40.4184 320.814ZM41.1976 318.705C40.6202 316.737 38.089 315.572 36.1833 317.074C35.8398 317.338 36.2314 317.773 36.5749 317.51C38.1371 316.271 40.0229 317.399 40.4866 318.882C40.6331 319.26 41.3441 319.083 41.1976 318.705ZM41.0165 313.736C39.9227 313.023 38.6558 313.299 38.0825 314.311C37.8287 314.71 38.4085 314.96 38.6623 314.561C39.1699 313.763 39.9379 313.828 40.7298 314.242C41.0317 314.542 41.4737 313.958 41.0165 313.736ZM42.4257 310.858C41.5857 309.745 40.2293 309.887 38.84 310.135C38.4068 310.262 38.5205 310.747 38.9209 310.726C40.0323 310.528 41.1438 310.329 41.7716 311.278C41.9838 311.442 42.6051 311.129 42.4257 310.858ZM42.6185 307.237C41.4591 306.737 40.3149 307.043 39.4966 307.997C39.2756 308.289 39.6671 308.724 39.8881 308.432C40.4854 307.77 41.2293 307.485 42.1766 307.821C42.5442 307.907 42.9533 307.43 42.6185 307.237ZM42.8443 303.51C41.7986 303.494 40.8096 303.721 40.0001 304.22C39.6566 304.483 39.8928 304.996 40.2363 304.733C41.011 304.359 41.8845 304.168 42.7699 304.18C43.2927 304.187 43.3672 303.517 42.8443 303.51ZM42.1204 301.164C41.3196 301.206 40.5189 301.248 39.8647 301.668C39.5212 301.931 39.9127 302.366 40.2562 302.103C40.755 301.761 41.4006 301.798 41.9234 301.805C42.4792 301.706 42.6433 301.172 42.1204 301.164ZM42.5823 297.95C42.4926 297.814 42.2148 297.864 42.0594 297.942C41.9041 298.02 41.7487 298.098 41.6262 298.07C41.2258 298.091 41.0617 298.625 41.5846 298.633C41.985 298.612 42.2629 298.562 42.6064 298.299C42.7289 298.328 42.7945 298.114 42.5823 297.95ZM7.47023 319.069C7.32368 318.691 7.05467 318.284 7.03063 317.935C7.03943 317.479 6.32838 317.656 6.35242 318.006C6.31079 318.569 6.5799 318.975 6.81614 319.489C6.99551 319.76 7.6496 319.34 7.47023 319.069ZM7.6215 316.011C7.47495 315.633 6.82076 316.053 7.00014 316.324C7.41574 317.109 7.9539 317.922 7.96914 318.727C7.96034 319.183 8.67144 319.006 8.6474 318.657C8.665 317.744 8.12679 316.931 7.6215 316.011ZM10.1375 316.37C10.0478 316.235 9.95809 316.099 9.99092 315.992C9.90123 315.857 9.8444 315.614 9.75471 315.479C9.45282 315.179 8.92118 315.628 9.22307 315.927C9.31276 316.063 9.40247 316.198 9.36965 316.305C9.45933 316.441 9.51617 316.683 9.60585 316.819C9.90774 317.118 10.4394 316.67 10.1375 316.37ZM11.8134 315.616C11.5772 315.103 11.1856 314.668 10.794 314.232C10.4922 313.933 9.96047 314.381 10.2624 314.681C10.6868 315.009 10.9558 315.416 11.192 315.929C11.4939 316.229 12.1153 315.916 11.8134 315.616ZM12.8463 313.108C12.5444 312.809 11.9799 313.364 12.3146 313.557C12.4043 313.692 12.5269 313.721 12.7719 313.778L13.0169 313.836C13.1066 313.971 13.2292 314 13.3517 314.028C13.507 313.95 13.6623 313.872 13.6055 313.629C13.5814 313.28 13.0257 313.379 12.8463 313.108ZM15.8459 312.32C15.6337 312.156 15.5441 312.021 15.3319 311.856C15.03 311.557 14.4982 312.005 14.8001 312.305C15.0123 312.469 15.102 312.605 15.3142 312.769C15.6489 312.961 16.0581 312.484 15.8459 312.32ZM18.7164 310.242C18.3817 310.049 18.047 309.856 17.8348 309.692C17.533 309.392 17.0013 309.841 17.3032 310.141C17.6051 310.44 17.9398 310.633 18.397 310.855C18.7317 311.047 19.0512 310.435 18.7164 310.242ZM21.2284 307.621L20.9505 307.671C20.5501 307.692 20.386 308.226 20.9089 308.234L21.1867 308.184C21.6768 308.299 21.7513 307.629 21.2284 307.621ZM24.565 305.308C24.4754 305.173 24.1974 305.222 24.0421 305.301C23.8868 305.379 23.7314 305.457 23.6089 305.428C23.2085 305.449 23.0444 305.984 23.5673 305.992C23.9676 305.971 24.2455 305.921 24.589 305.658C24.589 305.658 24.6547 305.444 24.565 305.308ZM49.5585 328.678C47.9482 329.219 46.3379 329.759 46.0905 331.419C45.9592 331.847 46.7927 331.698 46.7687 331.348C47.0401 330.037 48.4622 329.682 49.7618 329.299C50.0725 329.142 49.9917 328.551 49.5585 328.678ZM48.7031 326.76C47.8367 327.016 46.9375 327.378 46.1279 327.877C45.7844 328.14 46.0208 328.653 46.3643 328.39C47.141 327.999 47.9176 327.608 48.784 327.352C49.25 327.117 49.1691 326.525 48.7031 326.76ZM48.7231 324.13C47.7342 324.357 46.8021 324.827 46.2945 325.624C46.0406 326.023 46.6533 326.166 46.8743 325.874C47.3163 325.29 48.0929 324.899 48.9265 324.75C49.2372 324.594 49.1563 324.002 48.7231 324.13ZM48.1785 322.055C47.5572 322.368 47.2706 322.874 47.2289 323.437C47.2201 323.893 47.9312 323.716 47.9071 323.366C47.8831 323.017 48.1041 322.725 48.4148 322.569C48.8808 322.334 48.6446 321.82 48.1785 322.055ZM47.9054 318.669C47.505 318.69 47.1615 318.953 46.9405 319.245C46.7852 319.324 46.7195 319.537 46.9317 319.702C47.0214 319.837 47.2993 319.788 47.4546 319.709C47.61 319.631 47.7981 319.446 47.9534 319.368C48.2313 319.318 48.3057 318.648 47.9054 318.669ZM48.0567 315.611C47.6563 315.632 47.3128 315.896 47.0918 316.188C46.9364 316.266 46.8708 316.48 47.083 316.644C47.1727 316.779 47.4505 316.73 47.6059 316.652C47.7612 316.573 47.9494 316.388 48.1047 316.31C48.5051 316.289 48.5795 315.619 48.0567 315.611ZM47.4424 310.771C47.4664 311.12 47.0331 311.248 46.845 311.433C46.6896 311.511 46.6241 311.725 46.8363 311.889C46.926 312.025 47.2038 311.975 47.3591 311.897C47.7355 311.527 48.2015 311.292 48.2103 310.836C48.2191 310.38 47.5408 310.45 47.4424 310.771Z" fill="white"/>
</g>
</svg>
