<svg width="600" height="800" viewBox="0 0 600 800" fill="none" xmlns="http://www.w3.org/2000/svg">
<path d="M516.806 36.339H392.167L387.1 13.5778C385.359 5.64696 378.312 0 370.186 0H229.789C221.662 0 214.642 5.64696 212.875 13.5778L207.833 36.339H83.1683C37.5662 36.339 0.487946 73.4308 0.487946 119.033V717.308C0.487946 762.91 37.5662 800.002 83.1683 800.002H516.808C562.41 800.002 599.515 762.91 599.515 717.308V119.033C599.514 73.4308 562.408 36.339 516.806 36.339ZM533 704.352C533 720.148 515.809 733 500 733H87.5C71.7181 733 66.5 724.295 66.5 708.5L67 138.03C67 122.234 84.7181 104 100.5 104H195.824L192.948 116.93C191.786 122.062 193.054 127.446 196.327 131.538C199.623 135.642 204.613 138.03 209.862 138.03H390.133C395.386 138.03 400.373 135.642 403.644 131.538C406.945 127.434 408.211 122.064 407.05 116.93L404.175 104L497 103C512.809 103 533 117.206 533 133V704.352Z" fill="black"/>
<path d="M190.309 320.203H263.805L246.337 308.275C221.686 291.453 215.354 257.816 232.19 233.168C249.002 208.546 282.649 202.174 307.296 219.023L310.175 220.989V200.366C310.175 186.999 299.328 176.153 285.973 176.153H190.309C176.957 176.153 166.11 187 166.11 200.366V295.99C166.11 309.359 176.957 320.203 190.309 320.203Z" fill="black"/>
<path d="M190.309 505.845H263.832L246.337 493.904C221.686 477.078 215.354 443.445 232.19 418.797C249.002 394.16 282.649 387.787 307.296 404.65L310.175 406.618V385.995C310.175 372.629 299.328 361.782 285.973 361.782H190.309C176.957 361.782 166.11 372.629 166.11 385.995V481.633C166.11 494.998 176.957 505.845 190.309 505.845Z" fill="black"/>
<path d="M285.973 547.421H190.309C176.957 547.421 166.11 558.268 166.11 571.634V667.258C166.11 680.624 176.957 691.471 190.309 691.471H285.973C299.328 691.471 310.175 680.624 310.175 667.258V571.634C310.175 558.268 299.328 547.421 285.973 547.421Z" fill="black"/>
<path d="M272 447.047L325.633 492.03L396.963 406.983" stroke="black" stroke-width="50" stroke-linecap="round"/>
<path d="M272 261.047L325.633 306.03L396.963 220.983" stroke="black" stroke-width="50" stroke-linecap="round"/>
</svg>
